<svg xmlns="http://www.w3.org/2000/svg" viewBox="0 0 72 72"><path fill="#ffa7c0" stroke="#ffa7c0" d="M56 31c1-2 0-9-3-9 4-10-11-11-11-8-3-6-16 3-11 9-2 0-4 6-2 9 1 2 6 4 6 4 1 2 4 5 7 5 2 0 7-1 7-5 0 0 6-1 7-5Z"/><path fill="#fcea2b" d="M41 28c-2 0-3-1-3-3 0-1 0-2 2-3l4 3 3 3v1c0 2-1 3-3 3s-3-2-3-4"/><path fill="#b1cc33" d="M22 33c4 5 3 13 3 13s-8-1-12-6c-4-4-3-12-3-12s8 0 12 5Z"/><path fill="none" stroke="#000" stroke-linecap="round" stroke-linejoin="round" stroke-width="2" d="M22 33c4 5 3 13 3 13s-8-1-12-5c-4-5-3-13-3-13s8 0 12 5ZM33 42c-3 3-8 10-6 21M43 26s3-4 0-7M46 29a3 3 0 1 1-6 0M40 29a3 3 0 0 1 0-6M31 22c-2-2-1-5 2-8 3-2 7-2 9 0"/><path fill="none" stroke="#000" stroke-linecap="round" stroke-linejoin="round" stroke-width="2" d="M31 22c-2-2-1-5 2-8 3-2 7-2 9 0M35 36c-2 1-5-1-7-5-1-4 0-8 3-9M42 14c2-2 5-2 9 0 3 2 4 6 2 8M53 22c3 1 5 5 3 8-1 4-4 6-7 6M49 36c1 3-2 5-6 5s-7-2-8-5"/><circle cx="47.8" cy="25" r="1"/><circle cx="47.7" cy="19.4" r="1"/></svg>