<svg xmlns="http://www.w3.org/2000/svg" width="2000" height="669"><path fill="#FBD904" d="m497.6875-.4375 3.1697.0092C517.2192-.358 532.9697.4682 549 4l3.0527.6494c32.291 7.0158 63.028 19.6455 90.3228 38.3577C644.1487 44.1745 644.1487 44.1745 647 45c1.6794 1.6538 3.3442 3.3226 5 5 1.9978 1.5714 4.0203 3.1117 6.0625 4.625 10.4735 7.9227 19.7388 17.0079 28.8628 26.4246l1.8247 1.8606 1.6094 1.6604c1.613 1.5317 1.613 1.5317 3.7812 2.4663C696.7824 88.4053 696.922 90.3049 698 93c2.0167 1.1335 2.0167 1.1335 4 2l1 3 2 1 1 3 2 1 1 3 1.8398 1.832c3.1746 3.186 5.1882 6.9567 7.4766 10.8047 1.5306 2.6396 1.5306 2.6396 4.6836 3.3633 1.9793-.755 1.9793-.755 4.043-2.0273l2.467-1.3904 2.6775-1.5198c39.0191-21.2266 85.9223-24.6357 128.3398-12.4258C877.838 109.8362 893.364 118.0128 909 127l2 1 2 2.0625c4.905 5.0075 10.5748 10.044 17 12.9375 1.3186-1.2645 2.6297-2.5369 3.9375-3.8125l2.2148-2.1445c2.056-1.9984 2.056-1.9984 2.8477-5.043 2.0625-.6875 2.0625-.6875 4-1v-2l1.8125-.3125c2.5029-.7866 3.4006-1.823 5.1875-3.6875l3-1c1.7346-.9856 3.4678-1.974 5.1887-2.9834 11.25-6.5717 22.6782-11.3293 35.2488-14.7666l2.1633-.6025c14.6243-3.7713 29.459-3.9607 44.4539-3.9483 1.9967-.0039 3.9933-.0082 5.99-.013 4.1601-.0074 8.3201-.0072 12.4802-.0019 5.28.0058 10.5598-.0111 15.8398-.0343 4.1166-.0149 8.2331-.0156 12.3498-.0125 1.9445-.0005 3.889-.0056 5.8334-.0158 14.0436-.0647 28.3433.2937 41.7021 5.1283 7.414 2.4713 13.3224-1.1547 20.1172-4.1797 15.885-5.8263 32.6554-5.006 49.309-4.9625 3.8829.0069 7.7657-.0037 11.6485-.012 7.5859-.0132 15.1717-.0104 22.7575-.0017 6.1704.0068 12.3407.0077 18.511.0045l2.6708-.0014 5.3727-.003c16.7567-.0085 33.5133.0013 50.27.0174 14.3489.0134 28.6976.0111 43.0464-.0027 16.7006-.0161 33.4011-.0224 50.1017-.0132a397828.3015 397828.3015 0 0 0 8.0112.0043c6.1562.0025 12.3124-.0018 18.4687-.0089 7.512-.0084 15.0238-.006 22.5358.0099 3.8259.0078 7.6516.011 11.4774.001 26.1177-.0625 51.4632 1.437 72.9013 18.3277 2.657 1.4373 2.657 1.4373 5.9414.0078A170.7043 170.7043 0 0 0 1551.25 114c21.7289-10.2883 44.5228-12.486 68.3281-12.3984 1.992-.002 3.9839-.005 5.9758-.0087 4.1344-.0044 8.2687.0018 12.4031.016 5.2498.0171 10.4991.0072 15.7489-.0107 4.0994-.011 8.1987-.0074 12.2982.0004 1.934.002 3.8682-.0004 5.8023-.0075 26.802-.0767 49.1503 5.8594 71.1936 21.4089l3.4883-1.9414c35.2458-19.2872 74.3486-27.3066 114.3203-21.457 4.4567.5564 7.8182.4738 12.1914-.6016 2.8133-2.3958 2.8133-2.3958 5-5 1.3242-.3678 2.6561-.712 4-1l1-3c1.8435-.5786 1.8435-.5786 4-1 2.5404-1.2631 5.0525-2.5546 7.5625-3.875C1912.0594 76.1421 1931.092 74.41 1950 80c7.4062 2.6124 14.2281 6.0523 21 10l2 1 1.375 1.4375c1.5454 1.6475 1.5454 1.6475 3.5625 2.5 2.5795 1.3288 4.1827 2.8586 6.0625 5.0625l.5 2.125.5 1.875 1.9375.9375c2.8328 1.4593 3.1023 3.1081 4.0625 6.0625.8747 2.0373.8747 2.0373 2.4297 3.3438 1.8413 1.942 2.6762 3.6848 3.6953 6.1562l1.0078 2.3438c4.2 15.2866 4.283 36.4386-1.1601 51.3242-1.1198 3.2604-1.5685 6.4156-1.9727 9.832l-3 1-.3125 2.1875C1991 190 1991 190 1989.4998 192.3584c-5.1313 9.038-2.613 24.164-2.5623 34.3916.005 1.776.0096 3.552.0137 5.3281.0109 4.3074.028 8.6146.0488 12.9219h-2l.125 3.375C1985 252 1985 252 1983 254c-2.1845 2.8006-2.1845 2.8006-2.379 5.832-.742 3.785-2.2925 5.7624-4.5585 8.8555-2.0207 3.0425-2.0207 3.0425-3.0625 6.3125.9379 3.3633 2.3073 5.608 4.3438 8.4297 1.871 2.9036 2.2988 5.1646 2.6562 8.5703h2l.332 1.6875c1.1108 5.346 2.6403 10.2431 4.668 15.3125h2v7h2l-.125 3.9375c-.0131 4.693.4944 9.2341 1.125 13.875 1.3386 10.0531 1.1781 20.0653 1 30.1875h1c.1993 10.1624.1993 10.1624-1 14l-2 1v8h-2l-1 10h-2l-.1563 1.6602c-1.5763 11.0165-7.8985 21.7604-14.8437 30.3398l-2 1-1 3-3 1c-.6618 1.9805-.6618 1.9805-1 4l-1 1c-.2343 2.016-.4134 4.0385-.5625 6.0625l-.254 3.3477c-.0605.8546-.121 1.7093-.1835 2.5898h-2a1081.0894 1081.0894 0 0 0-1.5 7.0625l-.4336 1.9902c-.906 4.3787-1.2067 8.4515-1.0664 12.9473h-2v5h-2l-.1875 3c-.641 4.609-2.8502 8.447-5.8125 12h-2l-.875 2.9375C1943 499 1943 499 1941 500l-1 3a471.971 471.971 0 0 1-4 2c-1.4988 1.4595-2.9526 2.966-4.375 4.5-14.0281 14.1706-31.8044 23.0936-50.75 28.9375l-2.1606.6748c-16.722 4.7693-34.0389 5.504-51.3003 6.1338-2.4135.0961-4.8269.1931-7.2402.291-5.8272.2333-11.6547.4559-17.4825.673-4.7365.1766-9.4727.3586-14.2089.5439-61.816 2.4164-123.6478 4.377-185.4825 6.246v2l-1.793-.0273c-4.8913.098-4.8913.098-8.8476 2.6523-1.313 1.907-1.313 1.907-2.3867 3.879L1589 563h-2l-.3289 2.2083c-.7178 2.986-1.7476 4.8894-3.4094 7.4597l-1.7197 2.683-1.8545 2.8365-1.8896 2.9224c-1.9246 2.9687-3.861 5.9294-5.7979 8.8901-1.176 1.8163-2.3517 3.6327-3.5273 5.4492a4027.1895 4027.1895 0 0 1-3.2227 4.9258l-1.5168 2.3406c-1.1913 1.7978-2.455 3.5473-3.7332 5.2844h-2l-.2861 2.143c-.8436 3.3762-2.2435 5.6495-4.1358 8.568l-2.1093 3.2734-2.2188 3.3906a3292.4028 3292.4028 0 0 0-2.1719 3.3672c-2.007 3.099-4.034 6.1831-6.0781 9.2578l-1.5605 2.3486c-1.0903 1.5905-2.2553 3.1295-3.4395 4.6514h-2l-.2617 2.1133c-.913 3.5698-2.5034 6.0164-4.5508 9.0742l-2.082 3.168c-2.0427 2.5656-3.14 3.4679-6.1055 4.6445l-3.0625 2.0625c-5.893 3.8869-12.0802 3.6396-18.9375 2.9375-5.6584-1.904-10.5966-4.974-15-9l-2.625-2.375c-4.1157-4.5489-5.4483-8.668-6.375-14.625l-2-3c-2.1184-3.1777-2.3622-4.5488-2.8125-8.25-1.4505-10.3657-3.8984-20.5434-6.1875-30.75h-2v-9h-2l-.9531-2.414c-2.649-6.801-2.649-6.801-6.2969-13.086-1.75-2.5-1.75-2.5-2.125-4.5625-1.0861-3.367-3.869-4.8981-6.625-6.9375l-3-1-1-3c-2.2999-1.4484-4.5084-2.6813-6.9375-3.875l-2.1538-1.063c-5.219-2.4736-10.4743-4.3828-16.0337-5.937l-2.0544-.5776c-11.134-2.8904-22.3767-3.8548-33.844-3.7015l-3.7443.025c-3.3742.0256-6.748.0612-10.122.1032-2.1226.026-4.2451.0493-6.3677.0717-8.5405.0908-17.0807.1994-25.6208.3151-47.8751.6474-95.7504.933-143.629 1.1565-7.4226.0348-14.8452.072-22.2677.1103-96.404.498-96.404.498-143.2251.3723l-2.4472-.0066c-32.1844-.0876-64.3686-.22-96.5528-.3684l-3.4497-.0158c-79.4015-.364-158.7857-1.0818-238.1755-2.4803-7.2037-.1266-14.4074-.2475-21.6111-.3672C553.884 542.9634 445.9696 540.8025 221 531l-3.4463-.162c-13.018-.613-26.0348-1.2449-39.0504-1.9084-2.2623-.1144-4.5248-.226-6.7874-.3368-42.2742-2.0813-81.559-6.7888-117.1143-31.499C52.9814 495.9343 52.9814 495.9343 51 495l-1.9375-2c-1.9866-2.2155-1.9866-2.2155-5.0625-3-.7-1.3161-1.3627-2.6524-2-4-1.5705-1.8844-1.5705-1.8844-3.375-3.625l-1.7734-1.789C34.9883 478.99 33.1835 478.0847 31 477a89.4715 89.4715 0 0 1-2-4l-3-2-1-3-1.8008-1.789c-2.623-2.637-4.425-5.4282-6.3867-8.586l-2.1055-3.336C13.0263 451.0507 12.5093 448.57 12 445l-2-2a89.4715 89.4715 0 0 1-2-4l-1-2c-.8913-2.674-1.4773-5.2372-2-8H3c-2.0297-4.1863-2.0756-7.3868-2-12-.254-2.4648-.5517-4.919-.879-7.375C0 407 0 407 .4835 403.9306c.5938-4.5177.6634-8.8962.6614-13.446l.0106-2.8454c.0107-3.1359.0144-6.2718.0182-9.4078.0063-2.2523.013-4.5045.0202-6.7568.0147-4.8443.0264-9.6886.036-14.5329.0155-7.655.0394-15.3098.0649-22.9647.035-10.7265.0682-21.453.0981-32.1796l.0058-2.061c.0268-9.6635.0507-19.327.0734-28.9906l.0048-2.0646.0048-2.0621c.0268-11.3377.0613-22.6753.1019-34.013.0268-7.6152.0447-15.2304.056-22.8457.0091-4.7278.0264-9.4555.0462-14.1832.0075-2.1983.0115-4.3965.012-6.5948.001-2.9918.0142-5.9833.0306-8.975l-.008-2.6591c.0515-6.006.0515-6.006 2.2797-9.3483 1.0014-3.0042 1.5142-5.877 2-9h2l.0625-2.75C8.8803 150.2278 12.6344 144.928 16 140l2-1 1-3 2-1 1-3c1.3258-.6815 2.6605-1.3458 4-2 1.3528-1.314 2.6615-2.6739 3.9375-4.0625 16.046-16.3077 38.2821-25.308 61.052-26.0712a618.185 618.185 0 0 1 4.2488-.0116l2.3694-.0101c2.5683-.0095 5.1365-.0115 7.7048-.0126 1.8144-.0032 3.6287-.0066 5.4431-.01 3.806-.006 7.6121-.0079 11.4182-.0073 3.8555 0 7.711-.0068 11.5664-.0205 53.1949-.1865 53.1949-.1865 73.4473 4.3933l2.9612.6472c20.1023 4.5796 39.0308 11.996 56.531 22.9153 2.3212 1.4871 2.3212 1.4871 5.3203 1.25l1-3h2l.1914-2.0156c1.1236-4.147 3.3311-7.2186 5.7461-10.7344l1.3809-2.0742c3.4073-5.0386 3.4073-5.0386 5.6816-6.1758l1-3 2-1 1-3 2-1 .9375-2C296 93 296 93 299 92l.3125-1.8125C300 88 300 88 302.418 86.4922c5.234-3.3419 9.2863-8.1238 13.582-12.5547 7.8809-8.037 15.8797-15.3513 25-21.9375 2.7005-1.9662 5.3655-3.945 8-6v-2l1.7615-.3584c2.3605-.6766 3.9943-1.5824 6.055-2.9072C399.6118 13.8204 447.0542-.752 497.6874-.4375ZM1869 101v1h5v-1h-5Zm126 20 1 2Zm1 2 1 2Zm1 3 1 2ZM6 162l1 2Zm-3 10 1 4Zm1982 25 1 4Zm-2 51 1 3Zm-5 13 1 2ZM2 401l1 4Zm1981 1 1 2ZM2 421l1 2Zm1 3 1 2Zm1948 56 1 2Zm-491 107 1 2Zm11 45 1 2Zm1 3 1 2Z"/><path fill="#552B21" d="m502.1875 73.6875 2.4461.0045c12.6513.0419 24.96.6354 37.3664 3.308l3.8516.8086c29.0242 6.992 57.14 21.378 78.8125 41.9766 2.0299 1.9246 4.1105 3.6947 6.2734 5.4648C662.9233 153.2539 682.0862 199.2606 685 241c1.8097 47.0942-10.2448 90.9424-40 128l-1.497 1.8682C628.1693 389.8049 609.54 404.6134 588 416l-2.8633 1.5703C543.363 439.6416 493.8938 442.4143 449 429c-27.4387-8.782-51.0154-23.3601-72-43l-2.8398-2.6406C350.5943 360.9416 335.8642 331.9699 327 301l-.9648-3.3008c-3.6445-13.3993-4.3702-27.0293-4.296-40.8354.0108-2.3624 0-4.724-.0126-7.0865-.0148-13.9008 1.1449-27.3577 5.0234-40.7773l.804-2.8337C341.3942 158.354 372.8943 119.616 416 95c27.1345-14.618 55.446-21.4537 86.1875-21.3125Z"/><path fill="#DE231E" d="M0 409c2.032 2.032 2.592 3.1654 3.5938 5.789 13.8442 35.1578 39.3883 63.5267 73.9687 79.336 19.1046 7.847 39.7258 11.1368 60.3086 11.004l3.4028-.012c12.0378-.0734 24.064-.4617 36.0947-.8575 38.601-1.2641 77.2135-1.8895 115.8295-2.5027 4.8439-.0773 9.6877-.1567 14.5315-.2363 3.3195-.0536 6.639-.1036 9.9585-.1534 9.7095-.154 19.403-.3885 29.1034-.8398 18.0504-.8206 36.1224-1.0375 54.1868-1.3707 4.3174-.08 8.6347-.1621 12.952-.2442 13.9808-.2657 27.9618-.5248 41.9428-.7829 4.8474-.0896 9.6947-.1797 14.542-.2698 46.7525-.8691 93.5053-1.7311 140.2597-2.4967a31560.36 31560.36 0 0 0 6.037-.0999c48.7811-.8055 97.5685-1.403 146.3546-1.806l3.8834-.0323c91.2786-.749 182.563-.576 273.8439-.5543 19.268.0045 38.5361.0037 57.8042-.0009a184374.8717 184374.8717 0 0 1 75.7639-.0034l3.6557.0005c8.2409.0008 16.4818-.0006 24.7226-.003 45.347-.0117 90.6944.0353 136.04.4087 4.044.033 8.0877.06 12.1317.0813 43.9454.2417 89.1235 2.5976 124.0882 32.6463l2.004 1.5664c18.6613 15.0423 28.1936 37.6224 32.996 60.4336l.6055 2.7656c.5453 3.0887.4558 6.1063.3945 9.2344h2l.8364-1.751c2.0084-3.882 4.567-7.4005 7.0386-10.999l1.7556-2.562c4.1647-6.0366 8.4838-11.9328 12.92-17.7715 3.5611-4.6972 7.0022-9.4657 10.3869-14.2915 4.2689-6.079 8.5487-12.1491 12.875-18.1875l1.5603-2.1987c8.9485-12.453 8.9485-12.453 14.6272-16.2388 2.5418-.1862 4.9707-.2571 7.5116-.2325l2.3006-.0004c2.514.0031 5.0278.0218 7.5418.0417 1.7702.0077 3.5405.015 5.3107.0221 17.0856.0923 34.1558.5677 51.2308 1.1458 4.2144.1414 8.429.2757 12.6437.411 7.04.227 14.0798.4586 21.1195.6936 8.084.2698 16.1683.5337 24.2526.794 8.7257.2811 17.4513.5656 26.1769.8516 2.472.0808 4.9439.1612 7.4159.2414 3.896.1267 7.792.2558 11.6879.3866 1.4119.047 2.8238.0935 4.2358.139 8.2139.2656 16.4134.6374 24.6148 1.1549 7.315.4574 14.6313.6545 21.9574.8512 8.342.2346 16.674.4773 25 1.0625 34.8056 2.1223 70.345-1.1989 98-24.5625l1.9766-1.504c17.8852-14.2155 26.0273-37.866 29.0359-59.7328.7914-5.5671.7914-5.5671 2.9875-7.7632l1 7 4-2-.961 1.6094c-1.276 2.936-1.456 5.4523-1.664 8.6406l-.2266 3.2656L1962 451h-2a1081.0894 1081.0894 0 0 0-1.5 7.0625l-.4336 1.9902c-.906 4.3787-1.2067 8.4515-1.0664 12.9473h-2v5h-2l-.1875 3c-.641 4.609-2.8502 8.447-5.8125 12h-2l-.875 2.9375C1943 499 1943 499 1941 500l-1 3a471.971 471.971 0 0 1-4 2c-1.4988 1.4595-2.9526 2.966-4.375 4.5-14.0281 14.1706-31.8044 23.0936-50.75 28.9375l-2.1606.6748c-16.722 4.7693-34.0389 5.504-51.3003 6.1338-2.4135.0961-4.8269.1931-7.2402.291-5.8272.2333-11.6547.4559-17.4825.673-4.7365.1766-9.4727.3586-14.2089.5439-61.816 2.4164-123.6478 4.377-185.4825 6.246v2l-1.793-.0273c-4.8913.098-4.8913.098-8.8476 2.6523-1.313 1.907-1.313 1.907-2.3867 3.879L1589 563h-2l-.3289 2.2083c-.7178 2.986-1.7476 4.8894-3.4094 7.4597l-1.7197 2.683-1.8545 2.8365-1.8896 2.9224c-1.9246 2.9687-3.861 5.9294-5.7979 8.8901-1.176 1.8163-2.3517 3.6327-3.5273 5.4492a4027.1895 4027.1895 0 0 1-3.2227 4.9258l-1.5168 2.3406c-1.1913 1.7978-2.455 3.5473-3.7332 5.2844h-2l-.2861 2.143c-.8436 3.3762-2.2435 5.6495-4.1358 8.568l-2.1093 3.2734-2.2188 3.3906a3292.4028 3292.4028 0 0 0-2.1719 3.3672c-2.007 3.099-4.034 6.1831-6.0781 9.2578l-1.5605 2.3486c-1.0903 1.5905-2.2553 3.1295-3.4395 4.6514h-2l-.2617 2.1133c-.913 3.5698-2.5034 6.0164-4.5508 9.0742l-2.082 3.168c-2.0427 2.5656-3.14 3.4679-6.1055 4.6445l-3.0625 2.0625c-5.893 3.8869-12.0802 3.6396-18.9375 2.9375-5.6584-1.904-10.5966-4.974-15-9l-2.625-2.375c-4.1157-4.5489-5.4483-8.668-6.375-14.625l-2-3c-2.1184-3.1777-2.3622-4.5488-2.8125-8.25-1.4505-10.3657-3.8984-20.5434-6.1875-30.75h-2v-9h-2l-.9531-2.414c-2.649-6.801-2.649-6.801-6.2969-13.086-1.75-2.5-1.75-2.5-2.125-4.5625-1.0861-3.367-3.869-4.8981-6.625-6.9375l-3-1-1-3c-2.2999-1.4484-4.5084-2.6813-6.9375-3.875l-2.1538-1.063c-5.219-2.4736-10.4743-4.3828-16.0337-5.937l-2.0544-.5776c-11.134-2.8904-22.3767-3.8548-33.844-3.7015l-3.7443.025c-3.3742.0256-6.748.0612-10.122.1032-2.1226.026-4.2451.0493-6.3677.0717-8.5405.0908-17.0807.1994-25.6208.3151-47.8751.6474-95.7504.933-143.629 1.1565-7.4226.0348-14.8452.072-22.2677.1103-96.404.498-96.404.498-143.2251.3723l-2.4472-.0066c-32.1844-.0876-64.3686-.22-96.5528-.3684l-3.4497-.0158c-79.4015-.364-158.7857-1.0818-238.1755-2.4803-7.2037-.1266-14.4074-.2475-21.6111-.3672C553.884 542.9634 445.9696 540.8025 221 531l-3.4463-.162c-13.018-.613-26.0348-1.2449-39.0504-1.9084-2.2623-.1144-4.5248-.226-6.7874-.3368-42.2742-2.0813-81.559-6.7888-117.1143-31.499C52.9814 495.9343 52.9814 495.9343 51 495l-1.9375-2c-1.9866-2.2155-1.9866-2.2155-5.0625-3-.7-1.3161-1.3627-2.6524-2-4-1.5705-1.8844-1.5705-1.8844-3.375-3.625l-1.7734-1.789C34.9883 478.99 33.1835 478.0847 31 477a89.4715 89.4715 0 0 1-2-4l-3-2-1-3-1.8008-1.789c-2.623-2.637-4.425-5.4282-6.3867-8.586l-2.1055-3.336C13.0263 451.0507 12.5093 448.57 12 445l-2-2a89.4715 89.4715 0 0 1-2-4l-1-2c-.8913-2.674-1.4773-5.2372-2-8H3c-2.0236-4.1737-2.078-7.4029-2-12-.2587-2.6816-.6254-5.331-1-8Zm2 12 1 2Zm1 3 1 2Zm1948 56 1 2Zm-491 107 1 2Zm11 45 1 2Zm1 3 1 2Z"/><path fill="#D83733" d="M1196.7062 135.7326c1.2824-.0046 2.5648-.009 3.8861-.0138 3.5487-.0122 7.0973-.012 10.646-.0096 3.8318.0004 7.6636-.0106 11.4954-.02 7.5042-.0167 15.0084-.0222 22.5126-.0233 6.1033-.001 12.2067-.005 18.31-.0114 17.319-.0176 34.6381-.0268 51.9572-.0253l2.828.0002 2.8316.0002c15.1315.0009 30.263-.0183 45.3944-.0465 15.5515-.0287 31.103-.0425 46.6546-.0408 8.725.0007 17.45-.0048 26.175-.0264a5209.9025 5209.9025 0 0 1 22.294-.009c3.787.0066 7.5739.0068 11.361-.0106 4.1178-.0188 8.235-.0062 12.3528.0092l3.576-.0311c13.2279.1085 25.0477 3.3141 34.9449 12.2678 8.1661 8.4285 10.8284 18.1408 10.666 29.6006-.519 10.7475-4.705 19.3582-12.5918 26.6572-8.836 7.651-17.375 10.1494-29.0273 10.0977l-3.8965-.0098c-1.338-.0084-2.6758-.0168-4.0137-.0254-1.3652-.005-2.7305-.0096-4.0957-.0137A3709.6929 3709.6929 0 0 1 1471 214l.014 2.694c.1106 21.6773.1932 43.3546.245 65.0321.0258 10.4834.0608 20.9665.1182 31.4497.05 9.142.0821 18.284.0932 27.4262.0065 4.8363.0217 9.6723.0583 14.5085.0342 4.562.0443 9.1236.0368 13.6857a462.464 462.464 0 0 0 .0305 4.9942c.1781 16.132-3.2338 28.4638-14.6937 40.3932-5.1403 4.941-10.1186 7.7138-16.9023 9.8164l-1.9883.6797c-11.6147 3.5109-23.4155 1.2019-34.0312-4.2227-11.3494-6.7848-18.4155-16.6476-22.5594-29.2123-.5874-3.1312-.5436-6.1456-.5414-9.3314l-.0025-2.1635c-.0017-2.3922.0038-4.7844.0093-7.1766.0003-1.7148.0001-3.4297-.0005-5.1445-.0003-4.6567.0056-9.3133.0126-13.97.0063-4.866.0068-9.732.008-14.598.0031-9.2152.0114-18.4302.0214-27.6453.0112-10.4909.0167-20.9817.0217-31.4725.0104-21.581.0288-43.162.0503-64.7429h-75l.1055 36.3281c.0153 7.6016.0299 15.2031.041 22.8047.0178 12.0616.0386 24.123.0798 36.1846.03 8.7853.0493 17.5706.056 26.356.0039 4.6484.013 9.2966.0349 13.945.0205 4.383.0266 8.7658.0221 13.1489.0008 1.601.0067 3.2021.0183 4.8032.1178 17.1325-2.9358 32.6259-15.1701 45.3084-10.915 10.1887-21.659 11.6069-35.9648 11.3906-10.9021-.3924-19.1858-5.0253-27.2227-12.2695-11.2183-12.2694-13.7533-25.524-13.5676-41.5403.0014-1.726.0006-3.452-.0022-5.178-.0015-4.6461.0278-9.2915.0628-13.9374.0315-4.87.0342-9.74.0402-14.61.0154-9.2043.0564-18.4083.1067-27.6125.056-10.4862.0834-20.9723.1085-31.4586.0521-21.5546.14-43.1089.2516-64.6632l-2.687.0476c-3.3362.0516-6.6719.089-10.0083.1172-1.4353.015-2.8705.0353-4.3057.0615-13.2732.236-23.6632-1.2258-33.999-10.2263-8.1701-8.8305-11.8892-18.0967-12.25-30.125.784-12.1516 5.1262-21.6484 14.25-29.875 10.1275-6.8244 18.7362-8.2984 30.7062-8.2674Z"/><path fill="#D93834" d="m94.9519 139.8389 2.422-.015c2.65-.0147 5.3001-.0215 7.9503-.027l2.7695-.0086a6626.648 6626.648 0 0 1 14.578-.0285c3.973-.0044 7.9459-.0181 11.9189-.041C184.8378 139.4343 230.489 144.0385 268 181c2.4708 2.565 4.7533 5.2373 7 8l2.3398 2.832c12.1285 14.9976 20.9387 32.4624 26.4727 50.918l.5908 1.9646c3.1243 11.0438 3.9601 21.9016 3.9092 33.3479l-.0085 2.0647C308.0914 314.4252 296.9188 345.506 275 372l-1.3784 1.6748c-21.8769 26.1691-55.4378 42.9803-89.2077 46.133-17.0135 1.4372-33.9926 1.5672-51.0565 1.5628-4.286-.0002-8.5715.0274-12.8575.0616-3.358.0223-6.716.0262-10.0741.0252-1.5802.0023-3.1604.011-4.7406.0267C90.7984 421.6183 78.3861 419.223 67 409c-8.7054-9.038-12.1538-20.233-12.1404-32.5064l-.009-2.5902c-.0087-2.8632-.0102-5.7264-.0117-8.5897a16622.842 16622.842 0 0 0-.015-6.1603c-.0132-5.5787-.0196-11.1574-.024-16.7362-.003-3.4868-.0071-6.9736-.0116-10.4604a36420.7237 36420.7237 0 0 1-.0272-32.741c-.0045-12.5902-.022-25.1804-.051-37.7706a14015.093 14015.093 0 0 1-.033-29.2107c-.001-5.813-.007-11.626-.0249-17.4389a3553.1696 3553.1696 0 0 1-.0098-16.4117c.0008-2.0034-.0036-4.0069-.0135-6.0103C54.5387 172.9854 54.5387 172.9854 58 165l1.289-3.1016c5.6193-10.614 13.8935-17.6337 25.3554-21.4452 3.4253-.659 6.8326-.6092 10.3075-.6143Z"/><path fill="#D93C38" d="m815.875 136.75 2.1013-.003c10.633.0104 20.6811.5806 31.0237 3.253l3.3047.8086C871.4136 146.0647 887.7655 156.3564 902 170l2.625 2.5L907 175l1.7578 1.8086c20.9184 22.354 30.5553 52.6836 30.5327 82.8918l.0204 3.9815c.0175 3.5684.0223 7.1367.0236 10.7051.0014 2.2388.0057 4.4776.011 6.7164.0185 7.8369.0267 15.6737.0251 23.5106-.0012 7.263.0199 14.5257.0515 21.7886.0263 6.2722.0369 12.5443.0356 18.8166-.0005 3.73.005 7.4598.0264 11.1898.202 37.8866.202 37.8866-10.4841 50.591l-1.5195 1.8867c-6.4028 7.1817-15.828 11.7176-25.3868 12.3867-12.4688.3934-21.6066-1.2083-31.4687-9.4609-9.5796-9.3186-14.6057-21.3536-15.1305-34.7128a479.1546 479.1546 0 0 1-.0087-7.4837c-.0054-1.388-.0127-2.776-.0216-4.1638-.0152-2.9601-.0181-5.9199-.0112-8.88.0109-4.687-.0067-9.3738-.0278-14.0608-.0301-7.4132-.042-14.8263-.0456-22.2396a12415.2364 12415.2364 0 0 0-.085-39.8451c-.0165-4.6535-.022-9.3068-.0185-13.9602.0005-2.8969-.0071-5.7936-.0167-8.6904-.0039-1.9712.0021-3.9425.0085-5.9136-.0504-11.107-1.6087-20.5434-9.2445-29.0695-8.4959-8.0907-18.236-11.197-29.7968-11.0703-9.2236.7928-18.972 5.2593-25.0118 12.3828-5.7747 8.2435-8.3336 16.77-8.3461 26.8368l-.0121 3.5333.0016 3.835c-.003 1.3574-.0066 2.7149-.0106 4.0723-.0078 2.917-.013 5.834-.0163 8.751-.0059 4.625-.0225 9.25-.0413 13.875a343712.7593 343712.7593 0 0 0-.0286 7.1719c-.042 10.7594-.075 21.5187-.0873 32.2782a5299.6855 5299.6855 0 0 1-.0694 21.8032c-.0196 3.8379-.0322 7.6756-.0271 11.5135.0046 3.6184-.0095 7.2361-.037 10.8544-.0101 1.9366-.0008 3.8734.0094 5.81-.1474 14.056-3.429 26.4548-13.546 36.552-9.5378 8.1553-20.5945 11.1244-32.9142 10.4884-10.6104-.9785-19.5875-6.6767-26.8007-14.2852-7.8782-9.6377-10.034-20.0285-9.9043-32.1994-.0035-1.3601-.0092-2.7202-.0169-4.0803-.014-3.6598.0027-7.3189.0263-10.9786.0203-3.8602.0143-7.7203.012-11.5804 0-6.4868.0196-12.9732.0518-19.4599.0368-7.4492.0457-14.898.0387-22.3473-.0063-7.2188.0046-14.4375.024-21.6563.008-3.0462.0109-6.0922.0093-9.1384-.0015-19.3023.3084-38.2659 6.095-56.8797l.7603-2.4783C710.6109 203.3478 717.507 191.7192 726 181l2.043-2.7266c16.3278-21.116 42.944-36.5137 69.2312-40.8083 6.1847-.772 12.3759-.7089 18.6008-.7151Z"/><path fill="#D9322E" d="m1836.9375 136.75 2.1031-.004c10.293.0043 19.9794.5276 29.9594 3.254.8598.205 1.7196.41 2.6055.621 17.2199 4.5228 33.1433 13.9938 47.3945 24.379l2.0625 1.4531c9.9468 7.6443 15.7186 19.6715 18.6875 31.5469.9205 11.0458-.3205 20.386-5.5 30.375-6.5003 7.5837-13.2066 12.733-23.4072 13.8643-11.7531.874-21.8703.0606-31.546-7.294-3.9512-3.419-7.456-7.0597-10.7968-11.0703-6.7123-7.8729-16.1844-13.9976-26.6147-15.0981-2.3605-.1597-4.7074-.2385-7.0728-.2769l-2.2676-.0564c-6.798.0773-12.0504 2.249-17.0449 6.8689-1.9814 3.55-1.9856 5.6636-1.5 9.6875 2.1019 6.7727 5.468 10.0551 11.4807 13.366 7.6569 3.8946 15.4336 7 23.5193 9.884 1.3077.4737 2.6152.948 3.9224 1.4231 6.5487 2.3737 13.1146 4.6944 19.6948 6.9792 27.271 9.4971 51.8327 20.1366 65.8164 47.1133 8.0191 17.4185 10.2867 42.8565 3.9136 61.1035-8.3715 22.3455-24.7483 38.9074-46.1846 49.0606-33.0677 14.7803-74.2402 17.116-108.3262 4.2539C1772.818 412.2137 1759.5057 404.4857 1748 393l-2.2148-2.1797c-5.1174-5.3555-8.1823-10.9095-10.7852-17.8203l-1.1133-2.7188c-1.1914-4.4087-1.2162-8.5472-1.1992-13.0937l-.0488-2.58c-.0074-9.742 2.9227-18.2106 9.3613-25.6075 8.069-6.9743 16.1599-10.582 26.8125-10.4375l2.3865.023c6.5302.1836 11.9689 1.3683 17.801 4.4145l2.207 1.1094c5.3165 3.1036 9.1066 7.2924 13.168 11.8281 5.3017 5.9125 10.5032 10.3884 17.625 14.0625l2.2383 1.3008c5.6383 2.8338 11.1268 3.075 17.3242 3.1367l2.3984.031c7.1108-.1054 13.5457-1.3387 19.0391-6.031 2.8046-3.4181 3.2199-5.3202 3.375-9.6875l.1484-2.8281c-.7037-3.9283-2.678-6.2595-5.5234-8.9219-2.4725-1.5822-5.0625-2.6988-7.7734-3.8125l-2.3549-1.0061c-11.7186-4.9159-23.749-9.071-35.7184-13.327-27.3033-9.7327-55.3391-21.259-69.101-48.7475-9.9352-21.7848-9.3514-47.8715-1.5914-70.2475 7.9141-20.9166 25.9614-35.3656 45.797-44.332 15.3003-6.1465 30.211-8.7587 46.6796-8.7774Z"/><path fill="#D6332F" d="M1043.4727 139.5313c2.0563-.0072 4.1127-.0149 6.169-.0231a2862.886 2862.886 0 0 1 12.8615-.0092c5.4624.006 10.924-.0247 16.3862-.065 4.2391-.026 8.478-.0288 12.7172-.0252a747.7667 747.7667 0 0 0 6.0384-.0291c14.2678-.1133 26.9283.3766 37.7769 10.9289 7.789 8.3482 10.015 15.9484 9.9258 27.1992-.8065 8.1006-4.391 15.9326-10.3477 21.4922-9.0983 6.226-16.8933 9.1099-27.98 9.1418l-2.0326.0106c-1.447.0073-2.894.0127-4.341.0163-2.2963.0072-4.5924.0229-6.8886.0413-6.5255.0522-13.051.1004-19.5766.116-4.0013.01-8.002.0395-12.003.0812a476.5989 476.5989 0 0 1-4.552.0152c-11.4002-.0263-11.4002-.0263-21.6262 4.5776-5.1274 5.3973-6.5258 9.8406-6.379 17.1758.8012 5.9708 3.8352 9.5954 8.4415 13.2617 4.732 2.517 8.4712 2.6893 13.8264 2.7043l2.0763.0106c1.4852.0073 2.9704.0127 4.4556.0163 2.36.0072 4.7198.0229 7.0797.0413 6.7092.0523 13.4183.1004 20.1277.116 4.1092.01 8.2178.0396 12.3268.0812a502.634 502.634 0 0 0 4.6701.0152c12.2445-.0133 22.6378 1.4113 32.367 9.519 6.6643 6.8328 10.2753 15.3008 10.3829 24.8086-.2126 10.6546-3.5494 17.3496-10.8594 25.0469-6.5271 5.7163-13.7301 8.321-22.3069 8.345l-2.0807.0105c-1.4912.0073-2.9824.0127-4.4736.0163-2.368.0071-4.7359.0228-7.1038.0413-6.7331.0524-13.466.1004-20.1993.116-4.121.01-8.2415.0396-12.3622.0812a506.326 506.326 0 0 1-4.6894.0152c-13.8875-.1695-13.8875-.1695-25.934 6.0246-4.281 4.8681-5.7824 8.9012-5.6157 15.2444.5227 4.8266 2.4498 8.2731 5.375 12.0586 7.5474 5.9067 16.2388 5.671 25.454 5.6301 2.2724-.0092 4.544.0013 6.8163.0166 6.454.0398 12.908.0414 19.362.039 3.9658 0 7.9311.0194 11.8968.0494 2.2196.0107 4.4383-.0012 6.6579-.0138 11.6377.0295 22.1489 2.102 30.688 10.5287 6.7142 8.0876 9.6642 16.4508 9.3438 26.9453-1.0011 8.8957-4.562 16.1848-11.3438 22.0547-6.6052 4.634-12.8406 8.1695-21.0195 8.414l-3.7151.1182c-1.3593.032-2.7186.0628-4.0779.0928l-2.1196.0536c-5.6888.1426-11.378.2384-17.0679.3214l-2.8811.0436c-49.6119.7204-49.6119.7204-69.1189-3.0436l-3.5156-.586c-19.8076-3.9926-38.6433-18.0624-49.7578-34.582-12.8598-21.0935-18.3556-44.1163-13.4766-68.6445 1.3778-5.39 3.2228-10.2443 5.75-15.1875l1.7422-3.5547c4.7977-9.755 4.7977-9.755 7.2578-13.4453-.2092-5.2374-2.542-8.873-5.25-13.1875-10.9299-18.338-13.1677-41.148-8.75-61.8125 2.54-9.4012 5.5205-18.8787 11-27l1.0469-1.5923c5.1778-7.825 10.4237-14.671 17.9531-20.4077l2.6094-2c4.1405-3.038 7.2224-5.276 12.3906-6v-2c2.2026-.9532 4.4108-1.887 6.625-2.8125l1.8125-.791c13.7122-5.6668 27.4548-5.8714 42.0352-5.8653Z"/><path fill="#D63430" d="m1613.5996 140.8389 2.768-.015c2.992-.0146 5.984-.0215 8.9762-.027l3.117-.0086c5.4373-.015 10.8747-.0242 16.3121-.0285 5.5984-.0055 11.1965-.0296 16.7948-.058 4.3239-.0187 8.6477-.0238 12.9716-.0254 2.0635-.003 4.127-.011 6.1906-.0242 2.8904-.0171 5.7801-.0151 8.6705-.0086l2.551-.028c10.3918.0725 19.3547 3.8765 26.8416 11.1188 7.2913 8.1375 8.5991 16.0172 8.4765 26.6953-.6293 8.337-4.1667 14.4936-9.8437 20.5234-7.04 5.9403-15.2247 9.1637-24.3406 9.1887l-2.12.0106c-1.519.0073-3.0381.0127-4.5572.0163-2.4094.0071-4.8187.0228-7.2281.0413-6.8507.0524-13.7013.1004-20.5522.116-4.1923.01-8.3841.0395-12.5762.0812a524.7535 524.7535 0 0 1-4.778.0152c-13.1303-.0606-13.1303-.0606-24.332 6.394l-1.379 1.7461-1.4336 1.754c-2.9472 4.3952-2.7976 9.6118-2.1289 14.6835 2.083 5.0735 5.322 9.1041 10 12 4.904 1.6629 9.14 2.2434 14.3054 2.2236l2.1023.0013c1.495.0002 2.99-.0038 4.485-.0116 2.3773-.0103 4.7542-.0048 7.1315.0054 6.7555.0278 13.5106.0406 20.266.0113 4.1452-.0169 8.2895-.0042 12.4346.0264 1.567.006 3.1341.0014 4.701-.0148 11.8858-.1182 21.3095 1.8992 30.5117 10.0084 7.37 8.0728 9.5467 17.3174 9.3398 27.9492-.3685 5.0502-1.5943 8.5549-4.2773 12.8008l-1.2852 2.1094c-5.3068 7.864-12.3669 11.9534-21.4286 14.295-5.744 1.0411-11.5055.9837-17.323.9452-2.3056-.014-4.6104-.0072-6.916.0048-6.546.0307-13.0919.026-19.638.006-4.0265-.011-8.0523.0023-12.0787.0298-1.522.0055-3.0442.0015-4.5662-.0124-8.4807-.0764-15.9428-.0501-22.7643 5.6222-4.5545 5.5793-5.474 9.8906-5 17 1.1694 6.0458 3.7955 9.2336 8.6719 12.871 4.9757 2.4128 10.706 2.2576 16.1462 2.3026l3.985.0409 2.1006.0153c2.1914.0166 4.3826.0398 6.5739.0649 6.2259.0703 12.4518.1308 18.678.1821 3.8206.032 7.6412.0733 11.4618.1202 1.4475.016 2.895.0283 4.3426.037 12.6048.0761 24.5614 1.1368 34.04 10.366 7.9713 10.2692 10.2404 18.9196 9 32-2.3697 9.7046-9.6036 16.4607-17.6914 21.7734-6.4965 3.4517-12.6678 3.6385-19.875 3.8399l-3.4542.113c-12.0815.3639-24.1638.4598-36.2502.459-3.6891.0022-7.378.0205-11.067.0393-32.7687.0784-61.3583-2.7691-86.2872-26.3496-5.8408-6.008-10.1788-12.6502-14.375-19.875-.4305-.7412-.861-1.4824-1.3047-2.246-1.012-1.8869-1.8717-3.7781-2.6953-5.754l-1.0508-2.3398c-8.2077-20.803-5.9274-45.1103 2.1196-65.522 2.0346-4.672 4.6113-8.9942 7.2945-13.3179 1.4403-2.4818 2.2793-4.0234 2.6367-6.8203-1.1699-1.7331-2.3528-3.4604-3.6284-5.1172-2.1278-2.9209-3.519-6.0716-4.9341-9.3828l-.899-2.082c-9.1563-21.8834-9.9473-45.0415-1.812-67.3985 9.0156-21.3772 24.4978-39.6754 46.3126-48.8799 2.204-.8758 4.4185-1.7068 6.6484-2.5146l2.0867-.7607c8.1113-2.7705 16.3195-3.0141 24.8254-3.0254Z"/><path fill="#FBD803" d="M138 208c34.7652 0 34.7652 0 46.125 5.1875l2.0786.9363C191.7893 216.73 196.4705 219.7946 201 224l2.4805 2.207c13.3526 12.5042 22.9224 30.5678 23.8398 48.9883.3148 10.661-.1337 19.8815-4.3203 29.8047l-.9102 2.3945c-7.642 18.8899-22.0843 32.991-40.4765 41.1602C167.181 354.3276 153.9182 353 138 353V208Z"/><path fill="#FAD903" d="M514.789 222.6836C523.4926 227.8656 527.8248 234.474 531 244c.9129 8.8597-.5237 16.834-5.543 24.293-6.0242 7.3476-13.4243 12.0016-22.9882 12.961-8.8557.3855-15.8635-1.871-22.7813-7.4415-5.868-5.5116-9.3024-12.1365-9.961-20.1328-.2773-10.3909 1.344-17.6163 8.461-25.4922 10.251-9.2633 23.8897-11.5642 36.6016-5.504Z"/><path fill="#FAD204" d="M1937.3672 108.668c5.036 2.176 8.0462 5.5473 10.6328 10.332 1.9095 5.7284 1.9119 11.7756-.625 17.3125-2.6507 4.6364-6.0419 7.3633-10.6875 10-6.4853 1.659-12.0316 1.2644-17.8984-2.043-4.2918-3.0454-7.5029-7.1246-8.7891-12.2695-.761-6.755-.3067-12.5378 4-18 6.6857-6.615 14.4021-7.8618 23.3672-5.332Z"/><path fill="#DF2C1D" d="M1937.3672 108.668c5.036 2.176 8.0462 5.5473 10.6328 10.332 1.9095 5.7284 1.9119 11.7756-.625 17.3125-2.6507 4.6364-6.0419 7.3633-10.6875 10-6.4853 1.659-12.0316 1.2644-17.8984-2.043-4.2918-3.0454-7.5029-7.1246-8.7891-12.2695-.761-6.755-.3067-12.5378 4-18 6.6857-6.615 14.4021-7.8618 23.3672-5.332Zm-19.625 8.9101c-2.6719 4.148-3.4414 7.44-2.7422 12.4219 1.786 5.0812 4.0844 9.49 9 12 4.4197.7096 8.7885 1.0056 12.9414-.8828 4.9-3.7088 6.7025-8.6688 7.5586-14.5547-.667-4.752-2.3985-7.929-5.5-11.5625-3.8856-2.7631-7.3614-3.5584-12.0469-3.3438-4.0284.709-6.6978 2.7688-9.211 5.922Z"/><path fill="#FEBF00" d="M1175 96h320v1h-320v-1Z"/><path fill="#DF2A1D" d="m1922 116 5.75-.1875 3.2344-.1055c3.3606.3265 4.6987.8653 7.0156 3.293.375 3.5625.375 3.5625 0 7l-2 2h-3l5 10c-5-1-5-1-6.2578-2.5938l-.8672-1.9062c-1.496-3.7553-1.496-3.7553-4.875-4.5v9h-4v-22Z"/><path fill="#FEC300" d="M0 182h1v218H0V182Z"/><path fill="#E71303" d="M816 548h194v1H816v-1Z"/><path fill="#E51102" d="M1103 548h176v1h-176v-1Z"/><path fill="#FFE000" d="M1598 100h92v1h-92v-1ZM1019 100h92v1h-92v-1Z"/><path fill="#FFC100" d="M87 98h84v1H87v-1Z"/><path fill="#E21403" d="M1284 547h79v1h-79v-1Z"/><path fill="#DF1104" d="M737 547h74v1h-74v-1Z"/><path fill="#FA0000" d="M1024 549h60v1h-60v-1Z"/><path fill="#EC1200" d="M676 546h60v1h-60v-1Z"/><path fill="#DA1204" d="M617 545h56v1h-56v-1Z"/><path fill="#DB1302" d="M569 544h46v1h-46v-1Z"/><path fill="#E41304" d="M525 543h42v1h-42v-1Z"/><path fill="#E41403" d="M483 542h40v1h-40v-1Z"/><path fill="#FBD503" d="M1926 120h7c.5625 1.9375.5625 1.9375 1 4-1 1-1 1-4.5625 1.0625L1926 125v-5Z"/><path fill="#DD1305" d="M409 540h36v1h-36v-1Z"/><path fill="#E51205" d="M446 541h35v1h-35v-1Z"/><path fill="#DD1204" d="M1604 553h30v1h-30v-1Z"/><path fill="#E11204" d="M1636 552h30v1h-30v-1Z"/><path fill="#E11504" d="M1667 551h30v1h-30v-1Z"/><path fill="#D81204" d="M1698 550h30v1h-30v-1Z"/><path fill="#DE1506" d="M379 539h29v1h-29v-1Z"/><path fill="#DC1600" d="M1363 546h28v1h-28v-1Z"/><path fill="#FCD500" d="M797 96h28v1h-28v-1Z"/><path fill="#D41204" d="M1729 549h27v1h-27v-1Z"/><path fill="gold" d="M1988 207h1v27h-1v-27Z"/><path fill="#FACE00" d="M1821 96h27v1h-27v-1Z"/><path fill="#E31205" d="M1781 547h24v1h-24v-1Z"/><path fill="#E61302" d="M1757 548h23v1h-23v-1Z"/><path fill="#E91300" d="M1806 546h23v1h-23v-1Z"/><path fill="#E21002" d="M356 538h23v1h-23v-1Z"/><path fill="#E21005" d="M310 536h23v1h-23v-1Z"/><path fill="#DB1005" d="M264 534h23v1h-23v-1Z"/><path fill="#E61105" d="M1830 545h22v1h-22v-1Z"/><path fill="#DB1102" d="M288 535h22v1h-22v-1Z"/><path fill="#E81506" d="M334 537h21v1h-21v-1Z"/><path fill="#E71500" d="M242 533h21v1h-21v-1Z"/><path fill="#FFC700" d="m318 69 2 1-10 10c0-3 0-3 1.75-5.043l2.25-2.1445 2.25-2.168L318 69Z"/><path fill="#E31206" d="M221 532h20v1h-20v-1Z"/><path fill="#FFD200" d="M1994 343h1v19h-1v-19Z"/><path fill="#FC0" d="M676 69c4.2924 1.651 6.8794 4.7375 10 8l-1 2a1766.238 1766.238 0 0 1-4.5-4.4375l-2.5313-2.496C676 70 676 70 676 69Z"/><path fill="#DD1500" d="M202 531h18v1h-18v-1Z"/><path fill="#E11107" d="M183 530h18v1h-18v-1Z"/><path fill="#E01103" d="M164 529h18v1h-18v-1Z"/><path fill="#E41507" d="M145 528h18v1h-18v-1Z"/><path fill="#F9D900" d="M1920 75h16v1h-16v-1Z"/><path fill="#FFE400" d="M172 99h13v1h-13v-1Z"/><path fill="#CE1100" d="M133 527h11v1h-11v-1Z"/><path fill="#FFD200" d="M185 100h10v1h-10v-1Z"/><path fill="#CD0E07" d="M1391 547h9v1h-9v-1Z"/><path fill="#FFF700" d="M1993 332h1v9h-1v-9Z"/><path fill="#FFF000" d="M1588 101h9v1h-9v-1ZM1009 101h9v1h-9v-1Z"/><path fill="#FFD400" d="M1811 97h9v1h-9v-1Z"/><path fill="#DF0F00" d="M1853 544h8v1h-8v-1Z"/><path fill="#FFE400" d="M1690 101h8v1h-8v-1ZM1111 101h8v1h-8v-1Z"/><path fill="#FFDF00" d="M1849 97h8v1h-8v-1Z"/><path fill="#FFE400" d="M826 97h8v1h-8v-1Z"/><path fill="#FFEF00" d="M788 97h8v1h-8v-1Z"/><path fill="#CE1200" d="M126 526h7v1h-7v-1Z"/><path fill="#EC1200" d="M119 525h7v1h-7v-1Z"/><path fill="#FFF500" d="M79 99h7v1h-7v-1Z"/><path fill="#FFC500" d="M1496 97h7v1h-7v-1Z"/><path fill="#FFDA00" d="M531 0h7v1h-7V0ZM458 0h7v1h-7V0Z"/><path fill="#C90A00" d="M1400 548h6v1h-6v-1Z"/><path fill="#E91500" d="M1960 451h1v6h-1v-6Z"/><path fill="#FFDF00" d="M1992 326h1v6h-1v-6Z"/><path fill="#FFD400" d="M1987 201h1v6h-1v-6Z"/><path fill="#FFE900" d="M1 176h1v6H1v-6Z"/><path fill="#FFF400" d="M1582 102h6v1h-6v-1Z"/><path fill="#FFE900" d="M1003 102h6v1h-6v-1Z"/><path fill="#FFA900" d="M201 102h6v1h-6v-1Z"/><path fill="#FFE900" d="M195 101h6v1h-6v-1Z"/><path fill="#FFC600" d="M1858 98h6v1h-6v-1Z"/><path fill="#FFE900" d="M1805 98h6v1h-6v-1ZM835 98h6v1h-6v-1ZM781 98h6v1h-6v-1Z"/><path fill="#F4DB00" d="M1168 97h6v1h-6v-1Z"/><path fill="#FFD000" d="M1936 76h6v1h-6v-1Z"/><path fill="#FFDF00" d="M1914 76h6v1h-6v-1Z"/><path fill="#FFD400" d="M538 1h6v1h-6V1ZM452 1h6v1h-6V1Z"/><path fill="#F20C00" d="M1465 611h1v5h-1v-5Z"/><path fill="#F21900" d="M1464 606h1v5h-1v-5ZM1463 601h1v5h-1v-5Z"/><path fill="#D41900" d="M1861 543h5v1h-5v-1Z"/><path fill="#BA1900" d="M114 524h5v1h-5v-1Z"/><path fill="#B21900" d="M109 523h5v1h-5v-1Z"/><path fill="#D41900" d="M1959 457h1v5h-1v-5Z"/><path fill="#FFE500" d="M1991 321h1v5h-1v-5Z"/><path fill="#FFF200" d="M1987 235h1v5h-1v-5Z"/><path fill="#FFE500" d="M1577 103h5v1h-5v-1ZM998 103h5v1h-5v-1Z"/><path fill="#FFD800" d="M1698 102h5v1h-5v-1ZM1119 102h5v1h-5v-1Z"/><path fill="#FFE500" d="M1795 100h5v1h-5v-1ZM846 100h5v1h-5v-1Z"/><path fill="#CCA500" d="M73 100h5v1h-5v-1Z"/><path fill="#FFE500" d="M1864 99h5v1h-5v-1Z"/><path fill="#FFD400" d="M1800 99h5v1h-5v-1Z"/><path fill="#FFBA00" d="M841 99h5v1h-5v-1Z"/><path fill="#FFE500" d="M776 99h5v1h-5v-1Z"/><path fill="#EED400" d="M1163 98h5v1h-5v-1Z"/><path fill="#FFE500" d="M1942 77h5v1h-5v-1ZM1909 77h5v1h-5v-1ZM549 3h5v1h-5V3ZM442 3h5v1h-5V3Z"/><path fill="#FFD400" d="M544 2h5v1h-5V2ZM447 2h5v1h-5V2Z"/><path fill="#E90F00" d="m1467 620 1 4ZM1466 616l1 4Z"/><path fill="#FF0F00" d="m1461 592 1 4Z"/><path fill="#EF0F00" d="m1414 551 4 1ZM1410 550l4 1Z"/><path fill="#D90F00" d="m1406 549 4 1ZM1867 542l4 1Z"/><path fill="#CF0F00" d="m1871 541 4 1Z"/><path fill="#D90F00" d="m1875 540 4 1Z"/><path fill="#EF0F00" d="m102 521 4 1Z"/><path fill="#DF0F00" d="m1958 462 1 4Z"/><path fill="#FF0" d="m1989 387 1 4ZM1991 379l1 4Z"/><path fill="#FF8F00" d="m1138 107 4 1Z"/><path fill="#FFEF00" d="m219 106 4 1ZM1569 105l4 1ZM990 105l4 1ZM215 105l4 1Z"/><path fill="#FFC400" d="m1573 104 4 1ZM994 104l4 1Z"/><path fill="#FFCF00" d="m211 104 4 1Z"/><path fill="#FF9F00" d="m1704 103 4 1ZM1125 103l4 1Z"/><path fill="#FFEF00" d="m207 103 4 1Z"/><path fill="#FFD900" d="m1787 102 4 1Z"/><path fill="#FF9A00" d="m855 102 4 1Z"/><path fill="#FFC400" d="m1791 101 4 1ZM851 101l4 1Z"/><path fill="#FFAF00" d="m69 101 4 1Z"/><path fill="#FFD900" d="m1511 100 4 1Z"/><path fill="#FFCF00" d="m772 100 4 1Z"/><path fill="#FF8F00" d="m1507 99 4 1Z"/><path fill="#FFEF00" d="m1159 99 4 1Z"/><path fill="#FFB900" d="m1503 98 4 1Z"/><path fill="#FFAF00" d="m328 60 2 1h-3l1-1Z"/><path fill="#FF9A00" d="m666 60 3 1h-3v-1Z"/><path fill="#FF8F00" d="m660 55 3 1h-3v-1Z"/><path fill="#FF6F00" d="m334 55 2 1h-3l1-1Z"/><path fill="#FFB900" d="m566 7 4 1Z"/><path fill="#FFD900" d="m426 7 4 1Z"/><path fill="#FFAF00" d="m562 6 4 1Z"/><path fill="#FFEF00" d="m430 6 4 1Z"/><path fill="#FFCF00" d="m558 5 4 1ZM434 5l4 1Z"/><path fill="#FFEF00" d="m554 4 4 1ZM438 4l4 1Z"/><path fill="red" d="m1426 555 3 1Z"/><path fill="#BF1500" d="m1421 553 3 1ZM1418 552l3 1Z"/><path fill="red" d="m1879 539 3 1Z"/><path fill="#E91500" d="m1882 538 3 1Z"/><path fill="#BF1500" d="m1885 537 3 1Z"/><path fill="red" d="m1888 536 3 1Z"/><path fill="#FF1C00" d="m1893 534 3 1Z"/><path fill="#E93100" d="m106 522 3 1Z"/><path fill="red" d="m99 520 3 1Z"/><path fill="#E91500" d="m96 519 3 1Z"/><path fill="red" d="m93 518 3 1ZM90 517l3 1ZM85 515l3 1ZM80 513l3 1Z"/><path fill="#FF7F00" d="m930 140 2 1-2 1v-2Z"/><path fill="#FF0" d="m971 112 3 1Z"/><path fill="#FFE200" d="m237 112 3 1Z"/><path fill="#FF8D00" d="m1557 109 3 1ZM978 109l3 1ZM876 109l3 1Z"/><path fill="#FF0" d="m229 109 3 1ZM1769 108l3 1Z"/><path fill="#E2E200" d="m1560 108 3 1Z"/><path fill="#FFE200" d="m981 108 3 1Z"/><path fill="#FF0" d="m226 108 3 1Z"/><path fill="#FFBF00" d="m1772 107 3 1Z"/><path fill="#FFE200" d="m1563 107 3 1ZM984 107l3 1Z"/><path fill="#FF8D00" d="m871 107 3 1Z"/><path fill="#FFE200" d="m749 107 3 1Z"/><path fill="#FFE900" d="m223 107 3 1ZM1775 106l3 1Z"/><path fill="#FF0" d="m1714 106 3 1ZM1566 106l3 1ZM1135 106l3 1ZM987 106l3 1ZM868 106l3 1Z"/><path fill="#FFE900" d="m752 106 3 1ZM1778 105l3 1Z"/><path fill="#FF0" d="m1711 105 3 1Z"/><path fill="#FFE200" d="m1132 105 3 1Z"/><path fill="#FFBF00" d="m865 105 3 1Z"/><path fill="#FFE900" d="m1781 104 3 1ZM1708 104l3 1ZM1129 104l3 1Z"/><path fill="#FFA200" d="m862 104 3 1Z"/><path fill="#FFE900" d="m758 104 3 1Z"/><path fill="#FF8D00" d="m60 104 3 1Z"/><path fill="#FF0" d="m1784 103 3 1ZM1520 103l3 1Z"/><path fill="#FA0" d="m1148 103 3 1Z"/><path fill="#FFE900" d="m859 103 3 1ZM761 103l3 1Z"/><path fill="#FF0" d="m63 103 3 1Z"/><path fill="#FFE900" d="m764 102 3 1ZM66 102l3 1Z"/><path fill="#FFCD00" d="m1515 101 3 1Z"/><path fill="#FF0" d="m1153 101 3 1Z"/><path fill="#FFE900" d="m768 101 3 1ZM1156 100l3 1Z"/><path fill="#FFE200" d="m1953 80 3 1Z"/><path fill="#FF0" d="m1900 80 3 1ZM1950 79l3 1Z"/><path fill="#FFE900" d="m1903 79 3 1Z"/><path fill="#FF0" d="m1947 78 3 1ZM1906 78l3 1ZM593 16l3 1ZM400 16l3 1ZM588 14l3 1ZM405 14l3 1Z"/><path fill="#E9BF00" d="m585 13 3 1Z"/><path fill="#FFBF00" d="m408 13 3 1Z"/><path fill="#FFE900" d="m582 12 3 1ZM411 12l3 1ZM576 10l3 1ZM417 10l3 1ZM573 9l3 1ZM420 9l3 1Z"/><path fill="#FF0" d="m570 8 3 1ZM423 8l3 1Z"/><path fill="red" d="m1515 668 2 1Z"/><path fill="#D40000" d="m1494 668 2 1Z"/><path fill="red" d="m1517 667 2 1ZM1492 667l2 1ZM1489 665l2 1Z"/><path fill="#940000" d="m1438 561 2 1Z"/><path fill="red" d="m1433 558 2 1ZM1431 557l2 1ZM1429 556l2 1Z"/><path fill="#DF1F00" d="m1424 554 2 1Z"/><path fill="#FF2A00" d="m1891 535 2 1Z"/><path fill="#DF0000" d="m1896 533 2 1Z"/><path fill="red" d="m1898 532 2 1Z"/><path fill="#D40000" d="m1900 531 2 1Z"/><path fill="red" d="m1902 530 2 1Z"/><path fill="#D40000" d="m1904 529 2 1Z"/><path fill="red" d="m1906 528 2 1Z"/><path fill="#BF0000" d="m1908 527 2 1Z"/><path fill="#DF0000" d="m1910 526 2 1Z"/><path fill="red" d="m1913 524 2 1ZM1916 522l2 1Z"/><path fill="#DF0000" d="m1919 520 2 1Z"/><path fill="red" d="m1924 516 2 1Z"/><path fill="#DF1F00" d="m88 516 2 1Z"/><path fill="red" d="m83 514 2 1ZM78 512l2 1ZM73 509l2 1ZM71 508l2 1ZM69 507l2 1Z"/><path fill="#DF0000" d="m67 506 2 1Z"/><path fill="#7F0000" d="m65 505 2 1Z"/><path fill="red" d="m62 503 2 1Z"/><path fill="#BF0000" d="m58 500 2 1Z"/><path fill="red" d="m55 498 2 1Z"/><path fill="#E5C500" d="m928 142 2 1Z"/><path fill="#FFD400" d="m921 136 2 1Z"/><path fill="#D4D400" d="m916 132 2 1Z"/><path fill="#FFD400" d="m912 129 2 1Z"/><path fill="#FFDF00" d="m267 127 2 1Z"/><path fill="#FFBF00" d="m947 126 2 1Z"/><path fill="#FF0" d="m265 126 2 1Z"/><path fill="#FF5F00" d="m905 124 2 1Z"/><path fill="#FF0" d="m262 124 2 1ZM903 123l2 1Z"/><path fill="#D4D400" d="m260 123 2 1Z"/><path fill="#FF0" d="m953 122 2 1Z"/><path fill="#FFD400" d="m258 122 2 1Z"/><path fill="#FF0" d="m900 121 2 1Z"/><path fill="#FFBF00" d="m1745 120 2 1Z"/><path fill="#FF0" d="m1739 120 2 1ZM956 120l2 1Z"/><path fill="#FFDF00" d="m723 120 2 1Z"/><path fill="#FF0" d="m255 120 2 1Z"/><path fill="#FFBF00" d="m958 119 2 1Z"/><path fill="#FF0" d="m725 119 2 1Z"/><path fill="#FFDF00" d="m253 119 2 1Z"/><path fill="#FF0" d="m35 119 2 1ZM895 118l2 1Z"/><path fill="#FFDF00" d="m251 118 2 1ZM1750 117l2 1Z"/><path fill="#FFD400" d="m1735 117 2 1Z"/><path fill="#FFDF00" d="m961 117 2 1Z"/><path fill="#FF0" d="m893 117 2 1Z"/><path fill="#FF7F00" d="m728 117 2 1Z"/><path fill="#FFDF00" d="m249 117 2 1Z"/><path fill="#FF0" d="m1752 116 2 1Z"/><path fill="#FFDF00" d="m963 116 2 1Z"/><path fill="#FF0" d="m891 116 2 1Z"/><path fill="#FFDF00" d="m730 116 2 1Z"/><path fill="#FF0" d="m247 116 2 1ZM1754 115l2 1Z"/><path fill="#FFBF00" d="m1732 115 2 1Z"/><path fill="#FF0" d="m1544 115 2 1ZM965 115l2 1Z"/><path fill="#FF9400" d="m889 115 2 1Z"/><path fill="#FFBF00" d="m732 115 2 1Z"/><path fill="#FF0" d="m244 115 2 1Z"/><path fill="#FFDF00" d="m40 115 2 1Z"/><path fill="#FF0" d="m1756 114 2 1ZM1546 114l2 1ZM1540 114l2 1Z"/><path fill="#FFDF00" d="m967 114 2 1Z"/><path fill="#FFD400" d="m887 114 2 1Z"/><path fill="#FF0" d="m734 114 2 1ZM242 114l2 1ZM1758 113l2 1ZM1729 113l2 1Z"/><path fill="#FFDF00" d="m1548 113 2 1ZM969 113l2 1Z"/><path fill="#FFD400" d="m885 113 2 1Z"/><path fill="#FF0" d="m736 113 2 1Z"/><path fill="#FFDF00" d="m240 113 2 1Z"/><path fill="#FF0" d="m43 113 2 1Z"/><path fill="#FFDF00" d="m1760 112 2 1Z"/><path fill="#FF0" d="m1727 112 2 1ZM1550 112l2 1ZM883 112l2 1Z"/><path fill="#FFBF00" d="m738 112 2 1Z"/><path fill="#FF0" d="m1762 111 2 1Z"/><path fill="#FFD400" d="m1725 111 2 1Z"/><path fill="#FA0" d="m1553 111 2 1Z"/><path fill="#FFDF00" d="m1536 111 2 1Z"/><path fill="#FFD400" d="m974 111 2 1Z"/><path fill="#FF0" d="m881 111 2 1Z"/><path fill="#FFDF00" d="m740 111 2 1Z"/><path fill="#FF9F00" d="m235 111 2 1Z"/><path fill="#FFDF00" d="m46 111 2 1Z"/><path fill="#FA0" d="m1765 110 2 1Z"/><path fill="#FF9F00" d="m1555 110 2 1Z"/><path fill="#FF0" d="m1534 110 2 1Z"/><path fill="#FF9F00" d="m976 110 2 1Z"/><path fill="#FFDF00" d="m879 110 2 1Z"/><path fill="#FF0" d="m742 110 2 1Z"/><path fill="#D4B400" d="m232 110 2 1Z"/><path fill="#BFBF00" d="m48 110 2 1Z"/><path fill="#FF9F00" d="m1767 109 2 1Z"/><path fill="#FF0" d="m1721 109 2 1Z"/><path fill="#FFD400" d="m745 109 2 1Z"/><path fill="#FF0" d="m50 109 2 1Z"/><path fill="#FFD400" d="m1719 108 2 1Z"/><path fill="#FF0" d="m1531 108 2 1Z"/><path fill="#FF9F00" d="m874 108 2 1Z"/><path fill="#FFDF00" d="m747 108 2 1Z"/><path fill="#FFD400" d="m52 108 2 1Z"/><path fill="#FF9F00" d="m1717 107 2 1Z"/><path fill="#FFBF00" d="m1529 107 2 1Z"/><path fill="#FFD400" d="m54 107 2 1Z"/><path fill="#FF0" d="m1527 106 2 1Z"/><path fill="#FFDF00" d="m1142 106 2 1Z"/><path fill="#FF0" d="m56 106 2 1ZM1525 105l2 1Z"/><path fill="#FFDF00" d="m1144 105 2 1ZM755 105l2 1ZM58 105l2 1ZM1523 104l2 1Z"/><path fill="#DFDF00" d="m1146 104 2 1Z"/><path fill="#FFDF00" d="m1518 102 2 1ZM1151 102l2 1Z"/><path fill="#FF0" d="m1967 87 2 1ZM1887 87l2 1ZM1962 84l2 1ZM1892 84l2 1Z"/><path fill="#FFBF00" d="m1960 83 2 1ZM1894 83l2 1ZM1958 82l2 1ZM1896 82l2 1Z"/><path fill="#FFDF00" d="m1956 81 2 1ZM1898 81l2 1Z"/><path fill="#FF0" d="m656 52 2 1ZM338 52l2 1Z"/><path fill="#FF7F00" d="m652 49 2 1ZM342 49l2 1Z"/><path fill="#FFD400" d="m648 46 2 1ZM346 46l2 1Z"/><path fill="#FFDF00" d="m641 41 2 1ZM353 41l2 1ZM638 39l2 1Z"/><path fill="#FF5F00" d="m356 39 2 1Z"/><path fill="#FF0" d="m636 38 2 1ZM358 38l2 1ZM633 36l2 1Z"/><path fill="#FFD400" d="m361 36 2 1Z"/><path fill="#FFDF00" d="m630 34 2 1ZM364 34l2 1Z"/><path fill="#FFBF00" d="m628 33 2 1ZM366 33l2 1Z"/><path fill="#FFDF00" d="m623 30 2 1Z"/><path fill="#FF0" d="m371 30 2 1Z"/><path fill="#FFBF00" d="m621 29 2 1Z"/><path fill="#FF0" d="m373 29 2 1ZM619 28l2 1ZM375 28l2 1ZM617 27l2 1ZM377 27l2 1Z"/><path fill="#FFD400" d="m615 26 2 1ZM379 26l2 1ZM613 25l2 1Z"/><path fill="#FF0" d="m381 25 2 1ZM611 24l2 1ZM383 24l2 1Z"/><path fill="#FFD400" d="m609 23 2 1ZM385 23l2 1ZM607 22l2 1ZM387 22l2 1Z"/><path fill="#FF0" d="m605 21 2 1ZM389 21l2 1Z"/><path fill="#FFDF00" d="m603 20 2 1ZM391 20l2 1Z"/><path fill="#FF0" d="m601 19 2 1ZM393 19l2 1Z"/><path fill="#FA0" d="m598 18 2 1ZM396 18l2 1Z"/><path fill="#FFDF00" d="m596 17 2 1ZM398 17l2 1ZM591 15l2 1ZM403 15l2 1ZM580 11l2 1ZM414 11l2 1Z"/></svg>
