<svg xmlns="http://www.w3.org/2000/svg" width="1338" height="911" version="1.2"><defs><linearGradient id="g1" x2="1" gradientTransform="matrix(146 -28 28 147 752.393 186.098)" gradientUnits="userSpaceOnUse"><stop offset="0" stop-color="#ea1f27"/><stop offset="1" stop-color="#f8a760"/></linearGradient><clipPath id="cp1" clipPathUnits="userSpaceOnUse"><path d="M962.36 229.28c-5.08-79.74-67.39-104.73-111.2-104.73-44.57 0-97 14.72-143.38 30.99-27.37 9.6-53.37 18.82-77.81 25.26v103.9H956.1c5.25-17.29 7.5-36.01 6.26-55.42z"/></clipPath></defs><style>.s0{fill:#d0ad7c}.s1{fill:#ea1f27}.s4{fill:#fefefe}.s5{mix-blend-mode:multiply;fill:#bbbebd}.s9{fill:#111416}.s10{mix-blend-mode:multiply;fill:#86898a}</style><g id="Capa 1"><g id="&lt;Group&gt;"><path id="&lt;Path&gt;" d="M822 351.8c-19.8 3.8-43.3 11-70 21.7-101.6 40.5-186.8 61-253.9 61q-17.7 0-33.7-1.9c-31.2-3.7-57.4-12.9-78-27.4q-11.5-8.1-20.4-18.1h-.1c24.4 43.6 85.6 64.9 170.4 58.7 61.7-4.5 135.4-22.9 219.1-54.7 17.4-6.7 58.4-22.3 91.1-24.7 12.2-.9 24.5-1.2 32.1 3.3-1.3-4.1-3.2-8.4-5.9-11.7-8.1-10.2-23.4-11.3-50.7-6.2z" class="s0"/><path d="M975 259.6c-2.3 20.2-8.3 39.6-17.6 57.2-14 26.4-34.9 47.7-60.5 61.6l-7.3 3.8c4.6 8 6.7 17.3 6.7 17.3 48.3-21.7 78.4-88.7 78.7-139.9z" class="s0"/><path d="M962.4 229.3c-5.1-79.8-67.4-104.8-111.2-104.8-44.6 0-97 14.8-143.4 31-50.5 17.8-96.3 34.2-136.4 34.2-55.2 0-77-15.2-80.7-48.4-68.9 20.1-103.1 60.6-118.4 85.8-19.7 32.4-31 79.7-14.1 122.1 27.3 68 130.7 114.7 388.8 11.8 29.1-11.6 118.4-45 137.6-9.4 2.6 4.8 4.5 9.8 5.8 14.9 47.2-25.4 75.7-78.1 72-137.2z" class="s1"/><path d="M708 52.8c-28.9 9.6-56.4 18.7-82.2 25.2-2.4 27.7-4.4 57.4-5.7 88.5 25.8-5.1 52.6-13.4 83-24q12-4.3 24.1-8c2.1-32.4 4.9-62.9 7.9-90.3-9.2 2.8-18.3 5.6-27.1 8.6z" style="fill:#87288e"/><path d="M620.9 79.2c-20.2 4.7-39.3 7.7-57.3 7.7-17.9 0-35.6-2.4-47.3-5.3-1.7 19-2.5 42.8-.6 59.3 1.8 16.5 16.1 31.3 49.9 31.3 18.2 0 36.1-2 54.5-5.7 1.3-31.1 3.3-60.8 5.7-88.5q-2.5.6-4.9 1.2z" style="fill:#f5adcc"/><path d="M845.6 22.2c-22.8 1.4-45.8 5.4-68.9 10.8-13 3.1-26.1 6.6-39 10.4l-2.6.8q-1.4 12.9-2.8 26.6c-1.9 20.1-3.7 41.4-5.1 63.7 38.7-11.9 76.8-19.8 106.7-22.6 1.8-20.6 4-38.9 6.2-54.5 1.9-13.8 3.9-25.7 5.5-35.2z" class="s1"/><path d="M822 351.8c-19.8 3.8-43.3 11-70 21.7-101.6 40.5-186.8 61-253.9 61q-17.7 0-33.7-1.9c-31.2-3.7-57.4-12.9-78-27.4q-11.5-8.1-20.4-18.1h-.1c24.4 43.6 85.6 64.9 170.4 58.7 61.7-4.5 135.4-22.9 219.1-54.7 17.4-6.7 58.4-22.3 91.1-24.7 12.2-.9 24.5-1.2 32.1 3.3-1.3-4.1-3.2-8.4-5.9-11.7-8.1-10.2-23.4-11.3-50.7-6.2zM975 259.6c-2.3 20.2-8.3 39.6-17.6 57.2-14 26.4-34.9 47.7-60.5 61.6l-7.3 3.8c4.6 8 6.7 17.3 6.7 17.3 48.3-21.7 78.4-88.7 78.7-139.9z" class="s0"/><path id="&lt;Compound Path&gt;" fill-rule="evenodd" d="M927.4 272.8c0 4.9-4 9-9 9s-9-4.1-9-9c0-5 4-9 9-9s9 4 9 9zm-1.8 0c0-4-3.2-7.2-7.2-7.2s-7.2 3.2-7.2 7.2c0 3.9 3.2 7.1 7.2 7.1 1.9 0 3.7-.7 5-2h-2l-2.9-4.3H917v4.3h-2.1v-10.4h5.7c1.6 0 2.9 1.3 2.9 2.9 0 1.6-1.3 2.9-2.9 2.9l2.9 4.5c1.3-1.3 2.1-3.1 2.1-5zm-4.2-2.3c0-.7-.6-1.3-1.3-1.3H917v2.6h3.1c.7 0 1.3-.5 1.3-1.3z" class="s4"/><path d="M747 361c29.1-11.6 118.4-45 137.6-9.4 2.6 4.8 4.5 9.8 5.8 14.9 14.4-7.8 27.1-18.1 37.6-30.3 4.4-5.7 10.7-30.6-21.5-38-32.3-7.4-112.4 28-137.7 39-152.1 65.9-262 87.7-333.3 75.9q0 .1.1.1c60.7 17.1 159.1 8.5 311.4-52.2z" class="s5" style="mix-blend-mode:multiply"/><path d="M551.7 202.6c57-3.8 96.1-20.7 142.6-42.3-45.2 15.8-86.4 29.4-122.9 29.4-55.2 0-77-15.2-80.7-48.4-12.5 3.7-23.9 8-34.2 12.8 2.2 22.8 38.2 52.3 95.2 48.5z" style="fill:#f16e3b"/><g id="&lt;Clip Group&gt;" clip-path="url(#cp1)"><path id="&lt;Mesh&gt;" d="m752.4 186.1 34.8 23.4c7.1-10.6 28.3-36.7 35.4-47.2-13.7-4.3-37.3-.2-48.9-8q-10.6 15.9-21.3 31.8zm21.3-31.8c11.6 7.8 35.2 3.7 48.9 8 6.5-9.7.7-7.2 7.1-16.8-14.6-2.2-31.5 5.1-43.1-2.7-6.5 9.7-6.4 1.9-12.9 11.5zm12.9-11.5c11.6 7.8 28.5.5 43.1 2.7 6.8-10 5.1-3.5 11.8-13.5-15.2 1.1-31.5 3.5-43.1-4.3-6.7 10-5.1 5.1-11.8 15.1zm11.8-15.1c11.6 7.8 27.9 5.4 43.1 4.3 7-10.4 20.6-33.9 27.5-44.3-11.6-7.8-30.2-5.2-41.8-13-6.9 10.3-21.8 42.6-28.8 53zm-11.2 81.8q26.9 18 53.7 36c7.1-10.6 27.4-43.4 34.5-54-17.9-12-30.5-22.4-52.8-29.2-7.1 10.5-28.3 36.6-35.4 47.2zm35.4-47.2c22.3 6.8 34.9 17.2 52.8 29.2 6.4-9.6 16.9-23.6 23.4-33.3-17.9-12-44.9-9.1-69.1-12.7-6.4 9.6-.6 7.1-7.1 16.8zm7.1-16.8c24.2 3.6 51.2.7 69.1 12.7 6.7-10 6.1-4.5 12.8-14.5-17.9-12-45.3-13.6-70.1-11.7-6.7 10-5 3.5-11.8 13.5zm11.8-13.5c24.8-1.9 52.2-.3 70.1 11.7 7-10.4 4.1-9.6 11.1-20q-26.8-18-53.7-36c-6.9 10.4-20.5 33.9-27.5 44.3zm-.6 113.5c18.1 12.2 24.8 11.2 42.9 23.4 7.1-10.6 24.6-21 34.9-27.9-16.2-16.9-25.2-37.3-43.3-49.5-7.1 10.6-27.4 43.4-34.5 54zm34.5-54c18.1 12.2 27.1 32.6 43.3 49.5 13-8.9 15.2-8.6 21.7-18.3-11.5-20.3-23.5-52.3-41.6-64.5-6.5 9.7-17 23.7-23.4 33.3zm23.4-33.3c18.1 12.2 30.1 44.2 41.6 64.5 6.7-10 5.6-11 12.3-21.1-10.8-21.8-23-45.7-41.1-57.9-6.7 10-6.1 4.5-12.8 14.5zm12.8-14.5c18.1 12.2 30.3 36.1 41.1 57.9 7-10.3 17.4-31 24.4-41.4q-27.2-18.2-54.4-36.5c-7 10.4-4.1 9.6-11.1 20zm-27.8 125.2c11.4 7.6 34.2 28.4 45.6 36.1l14.2-21.2c-11.4-7.7-15.3-32.8-24.9-42.8-10.3 6.9-27.8 17.3-34.9 27.9zm34.9-27.9c9.6 10 13.5 35.1 24.9 42.8 6.5-9.7 5.4-11.6 11.8-21.3-11.3-7.6-7.8-27-15-39.8-6.5 9.7-8.7 9.4-21.7 18.3zm21.7-18.3c7.2 12.8 3.7 32.2 15 39.8 6.8-10 2-11.1 8.7-21.1-11.3-7.7-4.8-26.4-11.4-39.8-6.7 10.1-5.6 11.1-12.3 21.1zm12.3-21.1c6.6 13.4.1 32.1 11.4 39.8 7-10.4 32.8-28.8 39.7-39.2-11.3-7.6-15.4-34.4-26.7-42-7 10.4-17.4 31.1-24.4 41.4z" style="fill:url(#g1)"/></g><path fill-rule="evenodd" d="M542.2 293.4c-1.1 9.5-2 16.9-2.8 21.6-1.7 11-1.1 17.1-1 18.3.1 1.3-1.1 2.1-2.2 2.3-3.5.6-8.2-1.7-10.8-7.9-1.2 1.6-2.6 3.3-4.2 4.9-5 5.4-11.1 8.6-16.5 9.5-13.5 2.3-22.2-9.2-19.4-27 0 0 0-.3.1-.8s.2-.9.2-1c2.7-17.7 18-36.2 29.6-40 16.2-5.4 28.8 3.6 27 20.1zm-15.9-8.8c-8.1.2-19.9 12.7-23.2 27-3.4 14.4 2 19.9 9.6 15.3 11.8-6.9 19.4-42.4 13.6-42.3z" class="s5"/><path d="M805.8 228.7c-3.2.6-19.1 3.4-22.4 4 .9-5.3 2-9.9 3.3-14.5 4.4-15.1 18.3-17.7 21.5-13.3 2 2.6 5.9 1.4 6-2.9.1-2.9-3.4-9.9-18.7-7.2-13.1 2.2-20.8 12.3-25.4 28.9-1.2 4.5-2.3 8.5-3.1 12.4q-.9.2-1.5.3c-5.9 1-5 10.6-3.3 10.4.3 0 1.3-.2 2.9-.5-1 6.7-1.6 13.9-2.1 23.2-1.2 21.1 6 26.2 11.8 25.2 1.1-.2 2.3-1 2.2-2.3-.1-1.2-.2-7.1 1-18 .9-8.4 2-19.7 3.6-31l18-3.2s-2.1 8.5-3.6 24.9c-1.5 16.9 6.3 24.9 12.1 23.9 1-.2 2.2-1 2.2-2.3-.2-5.1 1.5-22.1 3.4-33.7 1.8-11.4 6.7-15.7 12.4-16.7 5.6-1 7 5.9 7.9 7.9.4.9 2.1.9 3-.2 2.1-2.5 5.2-7.6 3.7-14.1-1-4.7-5.2-6.9-10.6-5.8zM853.5 211.8c1.5-.6 10.8-3.6 18-10.1 6.9-6.2 9.3-15.3 10.6-23.2.1-.6-.4-1.1-1-1-10.4 2.2-23.1 8.3-27.4 15.9-3.8 6.8-4.2 14.6-3.9 17 .3 2.4 2.2 1.9 3.7 1.4zM618.1 261.5c-7.6 1.3-14.8 2.1-19.7 11.8-2.3-8.2-5.5-7.7-14-5.9-9 1.9-13 1.1-15.7 5.9-.3.3-.3 7.4-.4 7.7-.4-5.7-4-9.1-9.8-8.1 0 0-1.8.3-2.5.4-1.1.2-2 1.2-2.2 2.2 0 0-2.6 12.4-4.9 31.8-2.4 19.3 6 26.2 11.8 25.2 1-.2 2.3-1 2.2-2.2-.1-1.3-.3-8.9 1.2-19.7 3.9-27.4 12.7-30.7 16-31.2 3.4-.5 5.7 3.7 2.7 22.5-2.9 18.7 6 25.8 11.7 24.8h.1c1-.2 2.3-1 2.2-2.3-.1-1.2-.3-8.8 1.2-19.6 3.9-27.4 12.7-30.8 16-31.2 3.4-.5 5.7 3.7 2.7 22.4-2.9 18.8 6 25.9 11.7 24.9 1-.2 2.2-1 2.1-2.2 0-1.3-.7-7.1 1-17.7.6-4 1.1-7.3 1.6-10.1l1-6.4c.1-.7.1-1 .1-1l.4-2.3c2.1-14-4.9-21.7-16.5-19.7zM850.8 221.6s-1.8.3-2.5.4c-1 .2-2 1.2-2.2 2.3l-3 19.7-.8 4.9-1.1 7.1c-2.9 19 6 26.2 11.8 25.2 1.1-.1 2.3-.9 2.2-2.2-.1-1.2-.7-7.2 1-18 .9-5.9 1.7-11.2 2.3-14.9.5-3 .8-4.9.8-4.9l1.1-7.6c1.2-7.9-2.6-13.1-9.6-12zM466.8 259.7c8.8-2.3 12.8-1.8 15.6-1.5l1.4.2c2.2.2 4.4-.9 5.6-2.7.7-1.3 1-3.2-.7-4.6-1.5-1.3-7.3-5-21.3-2.4-28.6 5.3-55.6 33.7-60.2 63.3-2.3 14.3 1.1 26.8 9.5 35.3 8.4 8.5 20.5 11.8 34.2 9.5 13.4-2.3 24.9-8.6 30.5-13.8 2.6-2.6 2.9-4.9 2.3-6.1-.8-1.5-3-1.6-5.4-.3-3.6 2.1-11.2 4.8-17.6 5.9-23.1 4-37.7-10.9-34.1-34.6 4-25.7 23.7-44 40.2-48.2z" class="s5"/><path fill-rule="evenodd" d="M758 267.6c-3.2 20.8-18.7 34.1-33.6 36.8-14.8 2.4-26.9-6.2-23.6-27 3.2-20.9 15.2-36.1 30.1-38.8l4.2-3.4c14.8-2.4 26.1 11.5 22.9 32.4zm-17.7-19.7c-5.7.2-14.6 8.9-17.9 21.9 0 .1-.1.4-.3.9-.1.5-.2.8-.2.9-3.3 13-1.5 21 5.1 20.6 6.7-.3 13.3-9.2 16.7-22.2 0-.1.1-.4.2-.9s.2-.8.2-.9c3.3-13 1.7-20.5-3.8-20.3zM921.9 239.6c-3.2 20.8-18.7 34.1-33.6 36.8-14.8 2.4-26.9-6.2-23.6-27 3.2-20.8 20.5-36.1 35.4-38.8l-3.1-1.7h6.2c14.8-2.4 21.9 9.8 18.7 30.7zm-17.7-19.7c-5.7.2-14.6 8.9-17.9 22 0 0-.1.3-.2.8-.2.5-.2.8-.3.9-3.3 13-1.5 21 5.2 20.7 6.6-.4 13.3-9.3 16.6-22.3 0-.1.1-.4.2-.9s.2-.8.2-.8c3.4-13.1 1.7-20.6-3.8-20.4zM696.5 277.2s-.1.4-.2.9c0 .5-.1.8-.1.8-2.8 17.8-15.4 33-28.6 35.2-5.5 1-9.7-.3-13.5-4-3.2 16.8-3.5 32.3-3.4 33.6.1 1.2-1.1 2-2.1 2.2-5.9 1-13.1-6.5-11.9-25.2 1.3-18.7 9-57.7 9-57.7l.7-4.4c.1-1.1 1.1-2.1 2.1-2.3.8-.1 2.6-.4 2.6-.4 4.6-.7 5.1-.1 6.4 3.7.5-.5 2.9.3 2.7-.8-1.8-12.6 9.4-10.5 17.4-8.7 13.1 2.9 21.6 9.3 18.9 27.1zm-25.3-16.1c-7.3 1.8-12.5 18.7-15.3 40.6 10.9 9.2 22.2-8.4 24.7-20.9 2.4-12.4-2.2-21.6-9.4-19.7z" class="s5"/><path fill-rule="evenodd" d="M538.1 284.1c-1.1 9.5-2 16.9-2.8 21.6-1.7 11-1.1 17.1-1 18.4.1 1.2-1.1 2.1-2.2 2.2-3.5.7-8.2-1.7-10.8-7.8-1.2 1.5-2.6 3.2-4.2 4.9-5 5.3-11.1 8.5-16.5 9.4-13.5 2.4-22.2-9.2-19.4-27 0 0 0-.3.1-.7.1-.6.2-1 .2-1 2.7-17.8 18.9-31.9 30.5-35.8 16.2-5.4 27.9-.7 26.1 15.8zm-15.9-8.7c-8.1.2-19.9 12.6-23.2 26.9-3.4 14.4 2 19.9 9.6 15.4 11.8-7 19.4-42.5 13.6-42.3z" class="s4"/><path d="M826 214.8c-5.9 1.2-11.9 6.8-15.1 11.5.1-5-5.3-6.9-8.8-6.3-3.2.5-19.6 3.3-22.9 3.9 1-5.3 2.1-10.4 3.4-15 4.4-15.1 18.3-17.7 21.5-13.3 2 2.6 5.9 1.5 6-2.9.1-2.9-3.4-9.8-18.7-7.2-13.1 2.2-20.7 12.3-25.4 28.9-1.2 4.5-2.3 8.5-3.1 12.5q-.9.1-1.5.2c-5.9 1-5 10.7-3.3 10.4.3 0 1.3-.2 2.9-.5-1 6.7-1.6 13.9-2.1 23.2-1.2 21.1 6 26.2 11.8 25.2 1.1-.2 2.3-1 2.2-2.2-.1-1.3-.2-7.2 1-18 .9-8.5 2-19.7 3.6-31l18-3.3s-2.1 8.5-3.6 24.9c-1.5 17 6.3 24.9 12.1 23.9 1-.2 2.2-1 2.2-2.3-.2-5.1 1.5-22.1 3.4-33.7 1.8-11.3 6.7-15.7 12.4-16.7 5.6-1 7 6 7.9 7.9.4 1 2.1.9 3-.2 2.1-2.5 5.2-7.6 3.7-14.1-1-4.7-5.2-6.9-10.6-5.8z" class="s4"/><path d="M849.4 202.5c1.5-.5 10.8-3.6 18-10.1 6.9-6.1 9.3-15.3 10.6-23.2.1-.5-.4-1-1-.9-10.4 2.1-23.1 8.2-27.4 15.8-3.8 6.8-4.2 14.6-3.9 17 .3 2.5 2.2 1.9 3.7 1.4z" style="fill:#88c441"/><path d="M614 252.2c-7.6 1.3-13.2 6.3-18.1 16-2.3-8.2-7.1-11.9-15.6-10.1-9 1.9-12.8 7.8-15.5 12.6q-.4.6-.6 1.1c-.4-5.8-4-9.1-9.8-8.2 0 0-1.8.3-2.5.4-1.1.2-2 1.2-2.2 2.3 0 0-2.6 12.3-4.9 31.7-2.4 19.4 6 26.2 11.8 25.2 1-.2 2.3-1 2.2-2.2-.1-1.3-.3-8.8 1.2-19.7 3.9-27.4 12.7-30.7 16-31.2 3.4-.5 5.7 3.7 2.7 22.5-2.9 18.7 6 25.8 11.7 24.8h.1c1-.2 2.3-1 2.2-2.2-.1-1.3-.3-8.9 1.2-19.7 3.9-27.4 12.7-30.7 16-31.2 3.4-.5 5.7 3.7 2.7 22.5-2.9 18.7 6 25.8 11.7 24.8 1-.2 2.2-1 2.1-2.2 0-1.2-.7-7.1 1-17.7.6-3.9 1.1-7.3 1.6-10l1-6.5c.1-.6.1-1 .1-1l.4-2.3c2.1-14-4.9-21.7-16.5-19.7zM846.7 212.3s-1.8.3-2.5.5c-1 .1-2 1.1-2.2 2.2l-3 19.7-.8 4.9-1.1 7.2c-2.9 19 6 26.2 11.8 25.2 1.1-.2 2.3-1 2.2-2.3-.1-1.2-.7-7.1 1-17.9.9-6 1.7-11.3 2.3-15l.8-4.8 1.1-7.6c1.2-8-2.6-13.2-9.6-12.1zM462.7 250.4c8.8-2.3 12.8-1.8 15.6-1.4q.7 0 1.4.1c2.2.2 4.4-.9 5.6-2.7.7-1.3 1-3.2-.7-4.6-1.5-1.2-7.3-5-21.3-2.4-28.6 5.3-55.6 33.7-60.2 63.4-2.3 14.2 1.1 26.8 9.5 35.3 8.4 8.4 20.5 11.7 34.2 9.4 13.4-2.3 24.9-8.6 30.5-13.8 2.6-2.5 2.9-4.8 2.3-6-.8-1.6-3-1.7-5.4-.4-3.6 2.1-11.2 4.9-17.6 6-23.1 3.9-37.7-11-34.1-34.7 4-25.6 23.7-44 40.2-48.2z" class="s4"/><path fill-rule="evenodd" d="M753.9 258.3c-3.2 20.8-18.7 34.1-33.6 36.8-14.8 2.4-26.9-6.2-23.6-27 3.2-20.8 18.6-34.1 33.5-36.8 14.9-2.4 26.9 6.2 23.7 27zm-17.7-19.7c-5.7.2-14.6 8.9-17.9 22 0 0-.1.3-.3.8-.1.5-.2.8-.2.9-3.3 13-1.5 21 5.1 20.7 6.7-.4 13.3-9.3 16.7-22.3 0-.1.1-.4.2-.9s.2-.8.2-.8c3.3-13.1 1.7-20.6-3.8-20.4zM917.8 230.3c-3.2 20.8-18.7 34.1-33.6 36.8-14.8 2.4-26.9-6.1-23.6-27 3.2-20.8 18.6-34.1 33.5-36.8 14.9-2.4 26.9 6.2 23.7 27zm-17.7-19.7c-5.7.2-14.6 8.9-17.9 22 0 0-.1.4-.2.9-.2.4-.2.8-.3.8-3.3 13.1-1.5 21 5.2 20.7 6.6-.4 13.3-9.2 16.6-22.3l.2-.8c.1-.5.2-.9.2-.9 3.4-13.1 1.7-20.5-3.8-20.4zM692.4 267.9s-.1.4-.2 1c0 .4-.1.7-.1.8-2.8 17.7-15.4 32.9-28.6 35.2-5.5.9-9.7-.4-13.5-4.1-3.2 16.8-3.5 32.4-3.4 33.6.1 1.3-1.1 2.1-2.1 2.2-5.9 1-13.1-6.5-11.9-25.2 1.3-18.7 9-57.7 9-57.7l.7-4.4c.1-1.1 1.1-2.1 2.1-2.2.8-.2 2.6-.5 2.6-.5 4.6-.7 7.8 1.3 9.1 5.1l1.8-1.8c5-5.1 10.1-8.1 15.6-9.1 13.2-2.3 21.6 9.3 18.9 27.1zm-25.3-16.1c-7.3 1.8-12.5 18.7-15.3 40.6 10.9 9.2 22.2-8.4 24.7-20.8 2.4-12.5-2.2-21.6-9.4-19.8zM927.4 272.8c0 4.9-4 9-9 9s-9-4.1-9-9c0-5 4-9 9-9s9 4 9 9zm-1.8 0c0-4-3.2-7.2-7.2-7.2s-7.2 3.2-7.2 7.2c0 3.9 3.2 7.1 7.2 7.1 1.9 0 3.7-.7 5-2h-2l-2.9-4.3H917v4.3h-2.1v-10.4h5.7c1.6 0 2.9 1.3 2.9 2.9 0 1.6-1.3 2.9-2.9 2.9l2.9 4.5c1.3-1.3 2.1-3.1 2.1-5zm-4.2-2.3c0-.7-.6-1.3-1.3-1.3H917v2.6h3.1c.7 0 1.3-.5 1.3-1.3z" class="s4"/></g><path d="m1114.7 580.1-1.4 3.1 2.4 53.5q-.1 17.4.9 32.3 1 14.8 3 28.4-2.2 2.6-1.9 9.4-.2 4.7-.1 13.4.2 8.7.5 22.1.3 13.4.5 31.5.1 18.1.2 41.5l3.6 2.8q-2.1 4.4-1.9 9.9.6 15.3 12.9 19.8-1.1.5 5.6.1 6.6-.3 21.5-.6 6.8-.7 12.1-2.3 5.2-1.5 8.5-4.6 1.2-8.2 1.1-17.7-.2-9.6.1-21.5-1.4-24.7-1.7-34.4-.2-5.1-.3-6.8-2.4-2-3.4-3.9t-1.1-4q-.1-2.6.7-6.6.8-4.1.7-6.2-.1-4.3-4.1-7.5 4.8-3.6 5.6-14.3 1.4-11.1 7.4-14l2.8 2q1.3-4.3 4-4.5.7 0 1.9.6t2.3 1.2c.8.3-7.1 3.5-6.3 3.7.7.3.5 4.2 1 4.2 1.8-.1 4.7 3.4 3.4 3.2 1.1 1.9 2.9 5.1 5.3 13.2q3.8 12.1 8.7 32.3 6.5 18.9 9.7 28.5 3.2 9.6 4.1 11.3.4 11.1 3 20.3 2.7 9.2 8.7 18.7 8.6 4.3 16.2 3.9 1.9-.1 5.1-.4 3.2-.4 6.6-1 3.4-.6 6.7-1.2 3.2-.5 5.1-.6 3.8-.7 6.8-.2 3.1.5 6.6 1.6 3.4-.1 5.6-2.6 2.2-2.4 3.2-5.7 1-3.2 1.4-7.3.4-4 .7-7.9h.3q-4.7-52.5-6.6-79.1-2-26.5-.9-27.4-.4.5-.8-10.1-.4-10.7-1.3-33.2-.8-22.1-2-56.7-1.1-34.6-2.5-81.4 1.1-.9 1.4-2 .3-1 .1-2.1-.2-1.1-.6-1.9-.4-.8-.5-1.2 0-1.7 2.2-2.7-1.1-8.5-5-12.7-4-4.3-12-3.9-1.5 0-4 .4-2.4.3-5.3.6-2.8.4-5.5.7-2.6.4-3.8.4-7.6.4-13-1.9-1.9 1-3.7 1.9-1.9.9-3.8 1.9-1.8.9-2.9 2.5-1.1 1.5-1.4 3.7-.3 2.9-.5 7.4t0 10q.2 5.1 1.1 12.9.9 7.9 2 17.6 2.3 20.3 2.3 30.5.3 8.1.2 15.2-.1 7-.9 13.8l2.1-3.1h1.5q3.1-.2 4.7 2.3.1 2.5-1.9 5-2 2.4-3.8 4.6l-6.1.3q-5.3.3-8.8-1.2-3.5-1.6-4.8-5.3c-2-5.9-4-3.1-7.9-5.2-2.6-1.3-5.7-9.3-7.4-10.5q-2.5-1.8-4.1-4.3l4.4-4.9q.7-.4 1.1-.4l.7-.1q1.6 0 6.7 4.8-1.8-6.3-4.1-13-2.4-6.7-5.3-14.6-3.1-9.2-5.9-18.5-2.8-9.2-5.1-18.9-3.5-10.9-8.9-18.5-5.5-7.6-11.7-12-3.8 1.5-8.1 2.1-4.4.7-9.7.9-11.8.6-17.1.8-5.3.3-5-.1-1.9-1.2-4.6-1.1-8.7 0-13.5 13.9zM258.5 762.4q.7 12.1-.3 23.7-1 11.7-5.3 23.1-5 13-11.3 22.3-6.4 9.2-15.1 13-1 2-3.7 4.8-2.8 2.8-6.1 6.6-8.1 8.4-37.5 14.2-8.3.8-17.4 1.2-9.2.3-18.7-1.4-10.9-.5-19.6-2.9-8.7-2.3-15.9-6.2-5.5-3.3-12.7-10.8-7.3-7.5-14.6-18-7-11.9-11.3-21.1-4.4-9.1-5.4-16.9-2.6-23 5.5-28.5 1.7.2 3.1 0 1.4-.3 3.1-.5 1.6-.3 5.1-1.1 3.4-.8 7.1-1.7 3.6-.8 6.9-1.6 3.2-.7 5.3-1.1 18.5-3 28 5.7 2.1 13.3 9 22.2 6.8 8.9 19.9 16.1 3.7 2.2 6.5 1.8 2.1-.4 5.5-2.6 3.5-2.2 6-2.6 2.9-.5 6.5 1.7 4.4-4.9 2.5-12.5l2.1-.4q2.4-.4 5.9-6.1-4.6-3-5.2-7.6-.2-1.3 0-3.2.1-1.9.3-4.1.1-2.1.1-4.2-.1-2.1-.2-3-.7-8.3-14.9-19.1-14.2-10.8-40.1-26.2.2-1.9.2-3.3t-.1-2.3q-1.2-8.7-14.6-8.9-17.2-9.8-29-19.8t-18.7-17.7Q59 651 52.8 637.1q-6.3-14-7.2-30.7-3.3-21.9.6-39.7 4-17.7 17.5-33 11.3-12.6 26.6-19.1 15.2-6.5 36.6-9.6 33.6-6 57.8 4.6 24.2 10.5 34.3 39.3 2.5 6.6 5.9 13.3 3.4 6.7 4.3 13.1 2.3 21.1-22.7 25.2-4.1.7-8.8 1-4.8.4-10.8-.5-5-.1-9.7-.8l-9.4-1.2-7-18.1 2.4 2 3.7-6.3q-9.8-4.9-18.7-7.4-9-2.5-18.4-3.8-3.1 1.9-6.2 6.4-3.2 4.5-5.2 8.6-2.1-.1-4.7-1.1-2.7-1-6.4-3.6-7.8-5.3-10.7-4.8-3.3.5-5.4 6.5.5.4 3.8 1.7 3.3 1.3 9.1 3.7 9.6 3.5 10.3 8.1.1.9.1 2.3-.1 1.4-.7 2.9 1.2 5.9 5.5 11.8 4.3 5.8 11.8 11.2 8.9 7.4 14.2 12.6 5.3 5.2 7.7 7.6l-1.7 3.1 4.7 3.9q.1-2.3 3.4-2.9l4.9-.8L216 679q1.7.2 6 3.8 2.8 2.3 8.8 13 2.3 4.3 4.9 7.2 2.7 2.8 5.8 4.2 5.6 10.7 9.2 21.6 3.5 10.9 4.3 23.4 2.2 4.4 3.1 10.8z" class="s9"/><path fill-rule="evenodd" d="M647.7 827.4q-3.1 10.8-19.1 14.2l-7 1.9q-4.2-3.2-8.2-2.2-1.5.4-3.7 1.9-2.2 1.4-4.2 2.8-2 1.5-4.1 2.7-2.1 1.2-3.6 1.6-8.8 2.3-17.6-15.3-2.9-6.2-5.6-11.9-2.8-5.8-6.2-12.3-8.6-.3-17.1 1.6-10.6 3.2-16 7.7-5.5 4.5-7 11.9-.2 6.5-.3 12.2-.1 5.7-.7 11.9-.4 13.1-16.1 17.3-1.9.5-4.7 1.1-2.8.5-5.9 1.1-3.2.7-6.2 1.2-3 .6-4.8 1.1-1.1.3-3.8 1.4-2.6 1.2-3.8 1.5-5 1.8-9.7-.9-4.6-2.7-8.9-8 .2-2.7.7-5.2.4-2.5.6-6.9l-3.4-95.9q-.3-3.3-1.1-7.7-.7-4.4-1.8-9.7.2-15.3-.3-35.7-.5-20.5-2.6-48.6l-4.5-84.3q-.5-9.4-.8-15.4-.3-6 .7-8.9 1-5.9 4.9-9.5 3.9-3.7 9.8-5.2 1.8-.5 5-1 3.2-.4 6.8-.9 3.6-.5 6.6-.9 3-.4 4.9-.9 6.2-1.6 10.8-5.5-.3.1 3.1-1 3.4-1.2 10.8-3.1 8.1-2.2 13.3 2.1.9.6 2.9 3.9 2.1 3.4 6.1 9.3.4 2 1.6 5.8 1.2 3.8 2.7 8 1.5 4.2 2.9 8.1 1.4 4 2 6.4 1 5 .8 9.4 7.4 5.4 12.5 20.1 2 5.9 3.8 11.7 1.9 5.8 4.6 11.2l40.9 108q8 6.5 10.2 16.8l.4 1.6-1.8 2.7 4.3 3.6q1.8 6.5 5 14.5 3.3 8 8.3 18.4 4.8 11.7 8 20.4t4.9 14.8zM552.4 743q-.2-.8-1-1.7-.7-.8-1.1-.7L535 685.2l-1.3-1.7v-2.3q-3.7-6.4-6.3-13.3-2.7-6.9-3.2-15-4.6-4.8-9.2-2.7l-2.1 1q-6 8.1-2.5 17.1-4.6 7.8-.1 28.7 4.4 18.8-5.3 24.4l-.1.9q.2 1.3 1.5 1.8t2.9.7q1.6.3 2.9.3 1.4.1 2 .8-.7 2.4-.8 4.6-.1 2.2.5 5 .3 1.7 1.2 4l1.8 4.8q.9 2.3 1.9 4.9.9 2.6 1.2 4.2 1.7 7.8-5.4 12.8l2.3 1.5q1.3-2.9 4.4-4.6 3.2-1.7 7.8-3.4l14.7-4q1.6.1 3.2 4l-.4-2.1q.3-.5 1-2.2.8-1.8 2.9-4.9 2.6-4.2 1.9-7.5z" class="s9"/><path d="M760.4 655.5q-.4 14.1-1.1 26.6-.7 12.5-2.9 24.1-4 16.2-8.9 27.5-4.9 11.4-11.6 17.3-3.9 4.3-6.8 6.3t-4.9 2.8q-3.6 1.3-9.6 3.3-6.1 1.9-13.7 4.1-.3-.3-11.6-.7-11.3-.4-33.3-1.2-7.5-4.4-12.8-7.5-5.2-3.1-8-5.2-5.8-4.2-9.4-8.8-3.7-4.7-5.9-10.2-.4-1.4-1-4t-1.4-5.5q-1.5-5.5-3.1-10.6-1.5-5.1-2.3-9.6-4.2-57-6-84.7-1.7-27.8-2.7-27.4-.2-5.5 5.1-7.3 1.9-1.9 1.8-4.2-.1-2.5-5.1-1.6-.9-14.4-.4-24.8.4-10.4 1.4-17.9 3.1-23.9 14.9-37.5 1.6-1.6 4.3-4.1 2.7-2.6 7.3-6.1 2.9-2 5.4-4.4 2.6-2.3 5.5-4.5t5.8-3.7q3-1.4 6-1.5 2-.1 3.6.2 1.7.2 3.7 1.3 3-2 6.6-3.1 3.6-1.1 7.9-1.3 5-.3 15.7 1.4 5 .2 8.8.3 3.8.2 6.5.5v1.4q0-.3 1.1.6 1 .8 3.1 3.3 4.6-.2 8.7 2.8 4.1 2.9 7.7 9.1 4.9 7.2 8.2 11.1 3.3 3.9 5.1 5.3 6.4 19.8 9.9 34.3 3.6 14.5 4 24.1.2 6.3-.6 12.3-.7 6-2.2 11.2-2.7.2-6.8.6-4.1.3-9.7 1.7-5.3 1-9.4 1.8-4.2.7-7.2.5-8.9.8-15-2.2-6.1-3.1-8.7-9.3 1.9-3.4 1.7-7.5 0-1.1-.4-3.1t-.8-4.1q-.4-2-.9-4.2-.4-2.2-.4-3.3-.2-4.1 1.7-7.2-.4-1.1-.9-2.7-.6-1.6-1.3-3.5-.8-1.8-1.3-3.4-.6-1.7-.7-3.2-.1-2.6 1.5-4.9-2 .1-4.8-1-2.9-1.2-7-3.2-3.4-2.1-6.3-3.2-2.8-1.2-5.2-1.8-4.9 9.1-7.3 16.5-2.4 7.3-2.5 13.7.1 1.8.3 3.3.2 1.5.6 2.9-1.5 4.2-1.6 9 0 1.5.5 4.1.4 2.6.8 5.3.5 2.8.9 5.6.5 2.7.5 4.2.2 5.2-1.6 9 2 1 2.1 2.5 0 .7-.9 2.4-1 1.8-.6 3.2-.2 3.4.3 8.2.6 4.8 1.2 11.8.5 6.7.9 11.9.4 5.1.5 8.5l1.1 20.4q.2 4 0 11.3-.2 7.2-.8 17.7 3.4 2.8 7.7 7.2 4.4 4.4 10.5 9.7.9-2.3 3.3-4.4 2.5-2.2 6.7-3.9c5.7-2.5.6-4.8.5-7.5 0-1 7.5-2.5 7.1-3.8q-.8-2-2.6-4.5 2.8-6.1 2.5-15-.1-1.5-.4-4.1-.2-2.5-.7-5.3-.4-2.8-.7-5.4-.2-2.5-.3-4.4-.5-11.9 5.9-19.2l46.1-2.6q7.2 6.3 8.1 20.4zM929.7 867.7q-.7 4.2-2.4 7.7-4.3 3-9.1 2.1-1.2-.3-2.6-.8-1.5-.5-3.1-1-1.7-.5-3.3-1.1-1.6-.5-2.7-.7-3.8-.8-7.8.6-1.8-1.2-3.5-2-1.8-.8-3.6-1.5-2.9-1-7.5-1.5-3-.2-5.2-.6-1.5-.3-2.7-.1-13.7-3.1-16.7-13.6-.6-3.5-1.2-10.5t-1.7-17.5q-.9-10.9-1.8-18.5-.9-7.7-2.1-12.7-1.7-3.7-2.6-7.3-1-3.7-2.3-7.8-3.1-9.2-2.1-15.8.3-1.7.8-3.7.5-2.1 1.9-3.5-.3-.5-2.7-2.7-2.3-2.1-7-6.5-5.3-5.3-10.9-6.4l-7 5.5q5.4 4.9 3.9 11.9-.2 1.2-.7 3.3-.5 2-1.3 4.4-.7 2.4-1.5 4.7-.7 2.2-.9 3.4-.7 4.2 1.2 7.1-2.9 3.7-3.4 7.1-.3 1.6-.3 4 0 2.3.2 4.9.2 2.6.4 5t0 3.7q-.2 1.2-.6 2.4-.4 1.2-1 2.4l-.7-.1q.7.1-5.9 3.5 5.5 3.7 4.3 14.2-2 10.3-2.6 14.9-.5 4.6-.7 3.7l-7.4 5.4q-1.9-.4-5.8-.7-4-.4-10.1-.7-4.6 0-8.5-.6-4-.6-7-.8-9.3-1.8-15.6-5.8-6.3-4-10-9.5-.2-3.8.1-7.7.2-3.8.8-7.9.5-2.9 1.8-7.6 1.3-4.7 3-10.8 3.3-13.5 6.2-19.8 5.1-37.1 9.1-65.2 4.1-28.2 6.7-47 2.5-18.7 3.6-27.8 1-9 .4-7.4-.1-2.1.7-6 .8-3.9 2.5-9.6 1.3-5.8 2.2-9 .9-3.3.4-2.5 4.2-33.9 5.2-51.3t2-18.9q2.6-16.6 11.6-20.4 1.9.4 6 1t10.6 1q4.7-.4 8.6.2 3.9.5 6.9 1.1 17.6 3 25.3 14.8.1 1.8.1 3.3-.1 1.5-.4 3.1-.2 1.7-1 4.3-.8 2.6-2 5.6-1.3 3-2.1 5.8-.8 2.9-1.1 4.5-.8 5 .8 9.6l-.8-.1q.8.1-5.9 3.5 1.2 2 2.5 3.9 1.2 2 2.8 1.8.4 1.9.3 2.7-.3 2.1-3.2 3.2-3.6 1-4.5 1.7l3.4 5.4-4.8 3.8q3.4 2.4 5 11.7.8 4.8 2.1 7.4 1.3 2.7 3.8 4l-.3 2.1-1.9-.4c-2.3.1-3.1 4.9-3.3 2.8-1.6.6-.5-.8-.9 1.7l-2.8-1.2q1.9 4.7 8.6 11.2 5.3-2 5.8-7.9l.1-2.6-1.5-2.8q.3.5.7.5.3.1.7.2 1.5.3 7.1-3.8-.2-.8-.2-1.9-.1-1.1.1-1.9.3-2.1 1.9-4.8 1.5-2.7 3.4-5.8 1.8-3 3.4-5.9 1.6-2.9 2-5.4l2.2.8q5.1 1.5 8.5-3l-3.8-5q2.3-2.6 5-7.6 2.7-5.1 5.9-13 3.5-7.9 6.3-13.1 2.7-5.3 5-7.4 7.6-9.7 19.1-7l3 .6q1 .7 1.8.8.7.2 1 .6 1.9.4 4.5.5 2.7.1 5.7.5 3 .3 5.8.9 2.8.5 4.3.8 7.8 1.6 13 5 5.2 3.3 7.4 9.3-5 9.8-17 30.1l-33.5 49.2q-11.3 18.3-19.3 32.4-7.9 14.1-10.2 23.5l13.6 64.8q.2 1.3.9 2.5.8 1.2 1.2 3.9.3 2.6.6 5.7.3 3 .9 6.4.6 3.3 1.5 6.1.9 2.7 2.5 4.8-.5 1.1-.6 1.5-.1.5-.3 1.7-1 6.7 4 13.6.4 5.2 2.2 12.9 1.9 7.7 5.5 18.7 3.4 10.1 4.3 18.1.8 8.1.3 14zM1044.9 864.6q-2.6 18.8-23.5 13.9-2.8-.6-7.3-2.2-4.4-1.5-10.3-3.9-12.1-5.3-18.6-5.9-1.4-1.8-1.9-3.6t-.1-4q.2-1 .7-2.4.6-1.4 1.2-2.7.6-1.4 1.2-3 .6-1.5.7-2.2.5-2.9-1.3-5.9 7.7-30.7 11.8-46.3 4-15.5 5.4-12.2-1.2-2.5.2-15.2 1.4-12.8 4.9-36.3 3.4-23.4 8.8-57.9 5.3-34.4 12.8-80.5 4.5-6.8 11.9-9.3-1.2-.6 5.2.8 6.1 1.3 20.3 4.4 6.7 1.8 11.8 4.1 5.1 2.2 9.3 4.6 1 4 1.3 7.8.4 3.8-.1 8.5-.8 2.8-2 6.5-1.1 3.6-3 8.8-3.5 10.1-4.4 15.5-.7 3.9-1.4 9.5-.6 5.7-1.2 13-.7 7.7-1.9 13.4-1.1 5.7-1.4 9.4-.7 3.5-1.8 8.9t-3.1 12.8q-1.6 7.4-3 12.5t-3.2 8.1q-5.4 36.5-9 62.3-3.5 25.9-6.8 44.6-.4 2.1-.6 5.4-.2 3.3-.5 6.8t-.4 6.7q0 3.1-.4 5.3zM267.5 540.5l-1.4 2.9 2.4 51.2q-.1 16.7.8 30.8.9 14.2 2.9 27.2-2.1 2.5-1.8 9-.2 4.5-.1 12.8.1 8.4.5 21.2.3 12.8.4 30 .1 17.3.3 39.7l3.3 2.7q-2 4.2-1.8 9.4.6 14.7 12.4 19-1.1.4 5.3.1 6.3-.3 20.5-.6 6.6-.7 11.6-2.2 5-1.4 8.2-4.4 1.1-7.8 1-16.9-.2-9.2.1-20.6-1.3-23.5-1.6-32.9-.2-4.9-.3-6.5-2.3-1.9-3.2-3.7-1-1.8-1.1-3.8-.1-2.4.7-6.3.7-3.9.7-6-.2-4-4-7.1 4.6-3.5 5.3-13.7 1.4-10.6 7.2-13.4l2.6 2q1.3-4.2 3.8-4.3.8 0 1.9.5 1.1.6 2.2 1.1c.7.4-8.2 4.2-7.5 4.4.7.2 1.2 4.4 1.7 4.4 1.7-.1 4.9 3.4 3.7 3.2 1.4 2.4 3.2 4.1 5.4 11.3q3.5 11.6 8.3 30.9 6.1 18 9.2 27.2 3.1 9.2 3.9 10.8.4 10.6 2.9 19.4 2.5 8.8 8.3 17.9 8.2 4.1 15.5 3.7 1.8 0 4.9-.4 3.1-.3 6.3-.9 3.3-.6 6.4-1.1 3-.6 4.8-.7 3.7-.6 6.6-.1 2.9.5 6.2 1.5 3.3-.1 5.4-2.5 2.1-2.3 3.1-5.4.9-3.1 1.3-7t.7-7.5h.3q-4.5-50.3-6.4-75.6-1.9-25.4-.8-26.2-.3.4-.7-9.8-.4-10.1-1.3-31.6-.8-21.2-1.9-54.3-1.1-33.1-2.4-77.8 1-.8 1.3-1.9.4-1 .1-2-.2-1-.6-1.8-.4-.8-.4-1.2 0-1.6 2.1-2.5-1-8.1-4.8-12.2t-11.5-3.7q-1.4 0-3.8.3-2.3.4-5.1.7-2.7.3-5.2.7-2.5.3-3.6.3-7.3.4-12.5-1.8-1.8.9-3.5 1.8l-3.6 1.8q-1.8.9-2.8 2.4-1.1 1.5-1.4 3.5-.2 2.9-.4 7.1-.2 4.3 0 9.6.2 4.9 1 12.4t1.9 16.8q2.2 19.4 2.3 29.1.3 7.8.2 14.5-.1 6.7-1 13.2l2.1-2.9 1.4-.1q2.9-.1 4.5 2.2.1 2.5-1.8 4.8-1.9 2.4-3.7 4.5l-5.8.2q-5.1.3-8.4-1.2-3.3-1.4-4.6-5c-1.9-5.6-3.8-3-7.5-5-2.5-1.2-5.5-8.9-7.1-10q-2.4-1.7-4-4.1l4.2-4.7q.7-.4 1.1-.4l.7-.1q1.5 0 6.4 4.6-1.7-6-3.9-12.4-2.3-6.4-5.1-14-2.9-8.8-5.6-17.6-2.7-8.8-4.9-18.1-3.3-10.4-8.5-17.7-5.2-7.3-11.2-11.5-3.6 1.4-7.8 2-4.1.7-9.2.9-11.3.5-16.4.8-5.1.2-4.7-.2-1.9-1.1-4.4-1-8.4 0-13 13.2zM1035.2 530.7q-4.5 4.6-10.7 16.3-6.3 11.8-11 16.1-8 7.1-20.6 6.7l-2-.1q-2.5-3.5-2.3-7.3.1-4.3 6.6-12.8 6.6-8.5 6.7-13.2.1-2.2-.7-4.1-12.4-7-11.8-25.4.3-10.2 2.4-20.5 3.9-5.3 7.6-6.4 2.4-.8 11.3-.5 1.7.1 5.3 0 3.6-.1 5.6 0 12 .4 15 6.5z" class="s9"/><path d="m1114.7 580.1-1.4 3.1 2.4 53.5q-.1 17.4.9 32.3 1 14.8 3 28.4-2.2 2.6-1.9 9.4-.2 4.7-.1 13.4.2 8.7.5 22.1.3 13.4.5 31.5.1 18.1.2 41.5l3.6 2.8q-2.1 4.4-1.9 9.9.6 15.3 12.9 19.8-1.1.5 5.6.1 6.6-.3 21.5-.6 6.8-.7 12.1-2.3 5.2-1.5 8.5-4.6 1.2-8.2 1.1-17.7-.2-9.6.1-21.5-1.4-24.7-1.7-34.4-.2-5.1-.3-6.8-2.4-2-3.4-3.9t-1.1-4q-.1-2.6.7-6.6.8-4.1.7-6.2-.1-4.3-4.1-7.5 4.8-3.6 5.6-14.3 1.4-11.1 7.4-14l2.8 2q1.3-4.3 4-4.5.7 0 1.9.6t2.3 1.2c.8.3-7.1 3.5-6.3 3.7.7.3.5 4.2 1 4.2 1.8-.1 4.7 3.4 3.4 3.2 1.1 1.9 2.9 5.1 5.3 13.2q3.8 12.1 8.7 32.3 6.5 18.9 9.7 28.5 3.2 9.6 4.1 11.3.4 11.1 3 20.3 2.7 9.2 8.7 18.7 8.6 4.3 16.2 3.9 1.9-.1 5.1-.4 3.2-.4 6.6-1 3.4-.6 6.7-1.2 3.2-.5 5.1-.6 3.8-.7 6.8-.2 3.1.5 6.6 1.6 3.4-.1 5.6-2.6 2.2-2.4 3.2-5.7 1-3.2 1.4-7.3.4-4 .7-7.9h.3q-4.7-52.5-6.6-79.1-2-26.5-.9-27.4-.4.5-.8-10.1-.4-10.7-1.3-33.2-.8-22.1-2-56.7-1.1-34.6-2.5-81.4 1.1-.9 1.4-2 .3-1 .1-2.1-.2-1.1-.6-1.9-.4-.8-.5-1.2 0-1.7 2.2-2.7-1.1-8.5-5-12.7-4-4.3-12-3.9-1.5 0-4 .4-2.4.3-5.3.6-2.8.4-5.5.7-2.6.4-3.8.4-7.6.4-13-1.9-1.9 1-3.7 1.9-1.9.9-3.8 1.9-1.8.9-2.9 2.5-1.1 1.5-1.4 3.7-.3 2.9-.5 7.4t0 10q.2 5.1 1.1 12.9.9 7.9 2 17.6 2.3 20.3 2.3 30.5.3 8.1.2 15.2-.1 7-.9 13.8l2.1-3.1h1.5q3.1-.2 4.7 2.3.1 2.5-1.9 5-2 2.4-3.8 4.6l-6.1.3q-5.3.3-8.8-1.2-3.5-1.6-4.8-5.3c-2-5.9-4-3.1-7.9-5.2-2.6-1.3-5.7-9.3-7.4-10.5q-2.5-1.8-4.1-4.3l4.4-4.9q.7-.4 1.1-.4l.7-.1q1.6 0 6.7 4.8-1.8-6.3-4.1-13-2.4-6.7-5.3-14.6-3.1-9.2-5.9-18.5-2.8-9.2-5.1-18.9-3.5-10.9-8.9-18.5-5.5-7.6-11.7-12-3.8 1.5-8.1 2.1-4.4.7-9.7.9-11.8.6-17.1.8-5.3.3-5-.1-1.9-1.2-4.6-1.1-8.7 0-13.5 13.9zM258.5 762.4q.7 12.1-.3 23.7-1 11.7-5.3 23.1-5 13-11.3 22.3-6.4 9.2-15.1 13-1 2-3.7 4.8-2.8 2.8-6.1 6.6-8.1 8.4-37.5 14.2-8.3.8-17.4 1.2-9.2.3-18.7-1.4-10.9-.5-19.6-2.9-8.7-2.3-15.9-6.2-5.5-3.3-12.7-10.8-7.3-7.5-14.6-18-7-11.9-11.3-21.1-4.4-9.1-5.4-16.9-2.6-23 5.5-28.5 1.7.2 3.1 0 1.4-.3 3.1-.5 1.6-.3 5.1-1.1 3.4-.8 7.1-1.7 3.6-.8 6.9-1.6 3.2-.7 5.3-1.1 18.5-3 28 5.7 2.1 13.3 9 22.2 6.8 8.9 19.9 16.1 3.7 2.2 6.5 1.8 2.1-.4 5.5-2.6 3.5-2.2 6-2.6 2.9-.5 6.5 1.7 4.4-4.9 2.5-12.5l2.1-.4q2.4-.4 5.9-6.1-4.6-3-5.2-7.6-.2-1.3 0-3.2.1-1.9.3-4.1.1-2.1.1-4.2-.1-2.1-.2-3-.7-8.3-14.9-19.1-14.2-10.8-40.1-26.2.2-1.9.2-3.3t-.1-2.3q-1.2-8.7-14.6-8.9-17.2-9.8-29-19.8t-18.7-17.7Q59 651 52.8 637.1q-6.3-14-7.2-30.7-3.3-21.9.6-39.7 4-17.7 17.5-33 11.3-12.6 26.6-19.1 15.2-6.5 36.6-9.6 33.6-6 57.8 4.6 24.2 10.5 34.3 39.3 2.5 6.6 5.9 13.3 3.4 6.7 4.3 13.1 2.3 21.1-22.7 25.2-4.1.7-8.8 1-4.8.4-10.8-.5-5-.1-9.7-.8l-9.4-1.2-7-18.1 2.4 2 3.7-6.3q-9.8-4.9-18.7-7.4-9-2.5-18.4-3.8-3.1 1.9-6.2 6.4-3.2 4.5-5.2 8.6-2.1-.1-4.7-1.1-2.7-1-6.4-3.6-7.8-5.3-10.7-4.8-3.3.5-5.4 6.5.5.4 3.8 1.7 3.3 1.3 9.1 3.7 9.6 3.5 10.3 8.1.1.9.1 2.3-.1 1.4-.7 2.9 1.2 5.9 5.5 11.8 4.3 5.8 11.8 11.2 8.9 7.4 14.2 12.6 5.3 5.2 7.7 7.6l-1.7 3.1 4.7 3.9q.1-2.3 3.4-2.9l4.9-.8L216 679q1.7.2 6 3.8 2.8 2.3 8.8 13 2.3 4.3 4.9 7.2 2.7 2.8 5.8 4.2 5.6 10.7 9.2 21.6 3.5 10.9 4.3 23.4 2.2 4.4 3.1 10.8z" class="s10"/><path fill-rule="evenodd" d="M647.7 827.4q-3.1 10.8-19.1 14.2l-7 1.9q-4.2-3.2-8.2-2.2-1.5.4-3.7 1.9-2.2 1.4-4.2 2.8-2 1.5-4.1 2.7-2.1 1.2-3.6 1.6-8.8 2.3-17.6-15.3-2.9-6.2-5.6-11.9-2.8-5.8-6.2-12.3-8.6-.3-17.1 1.6-10.6 3.2-16 7.7-5.5 4.5-7 11.9-.2 6.5-.3 12.2-.1 5.7-.7 11.9-.4 13.1-16.1 17.3-1.9.5-4.7 1.1-2.8.5-5.9 1.1-3.2.7-6.2 1.2-3 .6-4.8 1.1-1.1.3-3.8 1.4-2.6 1.2-3.8 1.5-5 1.8-9.7-.9-4.6-2.7-8.9-8 .2-2.7.7-5.2.4-2.5.6-6.9l-3.4-95.9q-.3-3.3-1.1-7.7-.7-4.4-1.8-9.7.2-15.3-.3-35.7-.5-20.5-2.6-48.6l-4.5-84.3q-.5-9.4-.8-15.4-.3-6 .7-8.9 1-5.9 4.9-9.5 3.9-3.7 9.8-5.2 1.8-.5 5-1 3.2-.4 6.8-.9 3.6-.5 6.6-.9 3-.4 4.9-.9 6.2-1.6 10.8-5.5-.3.1 3.1-1 3.4-1.2 10.8-3.1 8.1-2.2 13.3 2.1.9.6 2.9 3.9 2.1 3.4 6.1 9.3.4 2 1.6 5.8 1.2 3.8 2.7 8 1.5 4.2 2.9 8.1 1.4 4 2 6.4 1 5 .8 9.4 7.4 5.4 12.5 20.1 2 5.9 3.8 11.7 1.9 5.8 4.6 11.2l40.9 108q8 6.5 10.2 16.8l.4 1.6-1.8 2.7 4.3 3.6q1.8 6.5 5 14.5 3.3 8 8.3 18.4 4.8 11.7 8 20.4t4.9 14.8zM552.4 743q-.2-.8-1-1.7-.7-.8-1.1-.7L535 685.2l-1.3-1.7v-2.3q-3.7-6.4-6.3-13.3-2.7-6.9-3.2-15-4.6-4.8-9.2-2.7l-2.1 1q-6 8.1-2.5 17.1-4.6 7.8-.1 28.7 4.4 18.8-5.3 24.4l-.1.9q.2 1.3 1.5 1.8t2.9.7q1.6.3 2.9.3 1.4.1 2 .8-.7 2.4-.8 4.6-.1 2.2.5 5 .3 1.7 1.2 4l1.8 4.8q.9 2.3 1.9 4.9.9 2.6 1.2 4.2 1.7 7.8-5.4 12.8l2.3 1.5q1.3-2.9 4.4-4.6 3.2-1.7 7.8-3.4l14.7-4q1.6.1 3.2 4l-.4-2.1q.3-.5 1-2.2.8-1.8 2.9-4.9 2.6-4.2 1.9-7.5z" class="s10"/><path d="M760.4 655.5q-.4 14.1-1.1 26.6-.7 12.5-2.9 24.1-4 16.2-8.9 27.5-4.9 11.4-11.6 17.3-3.9 4.3-6.8 6.3t-4.9 2.8q-3.6 1.3-9.6 3.3-6.1 1.9-13.7 4.1-.3-.3-11.6-.7-11.3-.4-33.3-1.2-7.5-4.4-12.8-7.5-5.2-3.1-8-5.2-5.8-4.2-9.4-8.8-3.7-4.7-5.9-10.2-.4-1.4-1-4t-1.4-5.5q-1.5-5.5-3.1-10.6-1.5-5.1-2.3-9.6-4.2-57-6-84.7-1.7-27.8-2.7-27.4-.2-5.5 5.1-7.3 1.9-1.9 1.8-4.2-.1-2.5-5.1-1.6-.9-14.4-.4-24.8.4-10.4 1.4-17.9 3.1-23.9 14.9-37.5 1.6-1.6 4.3-4.1 2.7-2.6 7.3-6.1 2.9-2 5.4-4.4 2.6-2.3 5.5-4.5t5.8-3.7q3-1.4 6-1.5 2-.1 3.6.2 1.7.2 3.7 1.3 3-2 6.6-3.1 3.6-1.1 7.9-1.3 5-.3 15.7 1.4 5 .2 8.8.3 3.8.2 6.5.5v1.4q0-.3 1.1.6 1 .8 3.1 3.3 4.6-.2 8.7 2.8 4.1 2.9 7.7 9.1 4.9 7.2 8.2 11.1 3.3 3.9 5.1 5.3 6.4 19.8 9.9 34.3 3.6 14.5 4 24.1.2 6.3-.6 12.3-.7 6-2.2 11.2-2.7.2-6.8.6-4.1.3-9.7 1.7-5.3 1-9.4 1.8-4.2.7-7.2.5-8.9.8-15-2.2-6.1-3.1-8.7-9.3 1.9-3.4 1.7-7.5 0-1.1-.4-3.1t-.8-4.1q-.4-2-.9-4.2-.4-2.2-.4-3.3-.2-4.1 1.7-7.2-.4-1.1-.9-2.7-.6-1.6-1.3-3.5-.8-1.8-1.3-3.4-.6-1.7-.7-3.2-.1-2.6 1.5-4.9-2 .1-4.8-1-2.9-1.2-7-3.2-3.4-2.1-6.3-3.2-2.8-1.2-5.2-1.8-4.9 9.1-7.3 16.5-2.4 7.3-2.5 13.7.1 1.8.3 3.3.2 1.5.6 2.9-1.5 4.2-1.6 9 0 1.5.5 4.1.4 2.6.8 5.3.5 2.8.9 5.6.5 2.7.5 4.2.2 5.2-1.6 9 2 1 2.1 2.5 0 .7-.9 2.4-1 1.8-.6 3.2-.2 3.4.3 8.2.6 4.8 1.2 11.8.5 6.7.9 11.9.4 5.1.5 8.5l1.1 20.4q.2 4 0 11.3-.2 7.2-.8 17.7 3.4 2.8 7.7 7.2 4.4 4.4 10.5 9.7.9-2.3 3.3-4.4 2.5-2.2 6.7-3.9c5.7-2.5.6-4.8.5-7.5 0-1 7.5-2.5 7.1-3.8q-.8-2-2.6-4.5 2.8-6.1 2.5-15-.1-1.5-.4-4.1-.2-2.5-.7-5.3-.4-2.8-.7-5.4-.2-2.5-.3-4.4-.5-11.9 5.9-19.2l46.1-2.6q7.2 6.3 8.1 20.4zM929.7 867.7q-.7 4.2-2.4 7.7-4.3 3-9.1 2.1-1.2-.3-2.6-.8-1.5-.5-3.1-1-1.7-.5-3.3-1.1-1.6-.5-2.7-.7-3.8-.8-7.8.6-1.8-1.2-3.5-2-1.8-.8-3.6-1.5-2.9-1-7.5-1.5-3-.2-5.2-.6-1.5-.3-2.7-.1-13.7-3.1-16.7-13.6-.6-3.5-1.2-10.5t-1.7-17.5q-.9-10.9-1.8-18.5-.9-7.7-2.1-12.7-1.7-3.7-2.6-7.3-1-3.7-2.3-7.8-3.1-9.2-2.1-15.8.3-1.7.8-3.7.5-2.1 1.9-3.5-.3-.5-2.7-2.7-2.3-2.1-7-6.5-5.3-5.3-10.9-6.4l-7 5.5q5.4 4.9 3.9 11.9-.2 1.2-.7 3.3-.5 2-1.3 4.4-.7 2.4-1.5 4.7-.7 2.2-.9 3.4-.7 4.2 1.2 7.1-2.9 3.7-3.4 7.1-.3 1.6-.3 4 0 2.3.2 4.9.2 2.6.4 5t0 3.7q-.2 1.2-.6 2.4-.4 1.2-1 2.4l-.7-.1q.7.1-5.9 3.5 5.5 3.7 4.3 14.2-2 10.3-2.6 14.9-.5 4.6-.7 3.7l-7.4 5.4q-1.9-.4-5.8-.7-4-.4-10.1-.7-4.6 0-8.5-.6-4-.6-7-.8-9.3-1.8-15.6-5.8-6.3-4-10-9.5-.2-3.8.1-7.7.2-3.8.8-7.9.5-2.9 1.8-7.6 1.3-4.7 3-10.8 3.3-13.5 6.2-19.8 5.1-37.1 9.1-65.2 4.1-28.2 6.7-47 2.5-18.7 3.6-27.8 1-9 .4-7.4-.1-2.1.7-6 .8-3.9 2.5-9.6 1.3-5.8 2.2-9 .9-3.3.4-2.5 4.2-33.9 5.2-51.3t2-18.9q2.6-16.6 11.6-20.4 1.9.4 6 1t10.6 1q4.7-.4 8.6.2 3.9.5 6.9 1.1 17.6 3 25.3 14.8.1 1.8.1 3.3-.1 1.5-.4 3.1-.2 1.7-1 4.3-.8 2.6-2 5.6-1.3 3-2.1 5.8-.8 2.9-1.1 4.5-.8 5 .8 9.6l-.8-.1q.8.1-5.9 3.5 1.2 2 2.5 3.9 1.2 2 2.8 1.8.4 1.9.3 2.7-.3 2.1-3.2 3.2-3.6 1-4.5 1.7l3.4 5.4-4.8 3.8q3.4 2.4 5 11.7.8 4.8 2.1 7.4 1.3 2.7 3.8 4l-.3 2.1-1.9-.4c-2.3.1-3.1 4.9-3.3 2.8-1.6.6-.5-.8-.9 1.7l-2.8-1.2q1.9 4.7 8.6 11.2 5.3-2 5.8-7.9l.1-2.6-1.5-2.8q.3.5.7.5.3.1.7.2 1.5.3 7.1-3.8-.2-.8-.2-1.9-.1-1.1.1-1.9.3-2.1 1.9-4.8 1.5-2.7 3.4-5.8 1.8-3 3.4-5.9 1.6-2.9 2-5.4l2.2.8q5.1 1.5 8.5-3l-3.8-5q2.3-2.6 5-7.6 2.7-5.1 5.9-13 3.5-7.9 6.3-13.1 2.7-5.3 5-7.4 7.6-9.7 19.1-7l3 .6q1 .7 1.8.8.7.2 1 .6 1.9.4 4.5.5 2.7.1 5.7.5 3 .3 5.8.9 2.8.5 4.3.8 7.8 1.6 13 5 5.2 3.3 7.4 9.3-5 9.8-17 30.1l-33.5 49.2q-11.3 18.3-19.3 32.4-7.9 14.1-10.2 23.5l13.6 64.8q.2 1.3.9 2.5.8 1.2 1.2 3.9.3 2.6.6 5.7.3 3 .9 6.4.6 3.3 1.5 6.1.9 2.7 2.5 4.8-.5 1.1-.6 1.5-.1.5-.3 1.7-1 6.7 4 13.6.4 5.2 2.2 12.9 1.9 7.7 5.5 18.7 3.4 10.1 4.3 18.1.8 8.1.3 14zM1044.9 864.6q-2.6 18.8-23.5 13.9-2.8-.6-7.3-2.2-4.4-1.5-10.3-3.9-12.1-5.3-18.6-5.9-1.4-1.8-1.9-3.6t-.1-4q.2-1 .7-2.4.6-1.4 1.2-2.7.6-1.4 1.2-3 .6-1.5.7-2.2.5-2.9-1.3-5.9 7.7-30.7 11.8-46.3 4-15.5 5.4-12.2-1.2-2.5.2-15.2 1.4-12.8 4.9-36.3 3.4-23.4 8.8-57.9 5.3-34.4 12.8-80.5 4.5-6.8 11.9-9.3-1.2-.6 5.2.8 6.1 1.3 20.3 4.4 6.7 1.8 11.8 4.1 5.1 2.2 9.3 4.6 1 4 1.3 7.8.4 3.8-.1 8.5-.8 2.8-2 6.5-1.1 3.6-3 8.8-3.5 10.1-4.4 15.5-.7 3.9-1.4 9.5-.6 5.7-1.2 13-.7 7.7-1.9 13.4-1.1 5.7-1.4 9.4-.7 3.5-1.8 8.9t-3.1 12.8q-1.6 7.4-3 12.5t-3.2 8.1q-5.4 36.5-9 62.3-3.5 25.9-6.8 44.6-.4 2.1-.6 5.4-.2 3.3-.5 6.8t-.4 6.7q0 3.1-.4 5.3zM267.5 540.5l-1.4 2.9 2.4 51.2q-.1 16.7.8 30.8.9 14.2 2.9 27.2-2.1 2.5-1.8 9-.2 4.5-.1 12.8.1 8.4.5 21.2.3 12.8.4 30 .1 17.3.3 39.7l3.3 2.7q-2 4.2-1.8 9.4.6 14.7 12.4 19-1.1.4 5.3.1 6.3-.3 20.5-.6 6.6-.7 11.6-2.2 5-1.4 8.2-4.4 1.1-7.8 1-16.9-.2-9.2.1-20.6-1.3-23.5-1.6-32.9-.2-4.9-.3-6.5-2.3-1.9-3.2-3.7-1-1.8-1.1-3.8-.1-2.4.7-6.3.7-3.9.7-6-.2-4-4-7.1 4.6-3.5 5.3-13.7 1.4-10.6 7.2-13.4l2.6 2q1.3-4.2 3.8-4.3.8 0 1.9.5 1.1.6 2.2 1.1c.7.4-8.2 4.2-7.5 4.4.7.2 1.2 4.4 1.7 4.4 1.7-.1 4.9 3.4 3.7 3.2 1.4 2.4 3.2 4.1 5.4 11.3q3.5 11.6 8.3 30.9 6.1 18 9.2 27.2 3.1 9.2 3.9 10.8.4 10.6 2.9 19.4 2.5 8.8 8.3 17.9 8.2 4.1 15.5 3.7 1.8 0 4.9-.4 3.1-.3 6.3-.9 3.3-.6 6.4-1.1 3-.6 4.8-.7 3.7-.6 6.6-.1 2.9.5 6.2 1.5 3.3-.1 5.4-2.5 2.1-2.3 3.1-5.4.9-3.1 1.3-7t.7-7.5h.3q-4.5-50.3-6.4-75.6-1.9-25.4-.8-26.2-.3.4-.7-9.8-.4-10.1-1.3-31.6-.8-21.2-1.9-54.3-1.1-33.1-2.4-77.8 1-.8 1.3-1.9.4-1 .1-2-.2-1-.6-1.8-.4-.8-.4-1.2 0-1.6 2.1-2.5-1-8.1-4.8-12.2t-11.5-3.7q-1.4 0-3.8.3-2.3.4-5.1.7-2.7.3-5.2.7-2.5.3-3.6.3-7.3.4-12.5-1.8-1.8.9-3.5 1.8l-3.6 1.8q-1.8.9-2.8 2.4-1.1 1.5-1.4 3.5-.2 2.9-.4 7.1-.2 4.3 0 9.6.2 4.9 1 12.4t1.9 16.8q2.2 19.4 2.3 29.1.3 7.8.2 14.5-.1 6.7-1 13.2l2.1-2.9 1.4-.1q2.9-.1 4.5 2.2.1 2.5-1.8 4.8-1.9 2.4-3.7 4.5l-5.8.2q-5.1.3-8.4-1.2-3.3-1.4-4.6-5c-1.9-5.6-3.8-3-7.5-5-2.5-1.2-5.5-8.9-7.1-10q-2.4-1.7-4-4.1l4.2-4.7q.7-.4 1.1-.4l.7-.1q1.5 0 6.4 4.6-1.7-6-3.9-12.4-2.3-6.4-5.1-14-2.9-8.8-5.6-17.6-2.7-8.8-4.9-18.1-3.3-10.4-8.5-17.7-5.2-7.3-11.2-11.5-3.6 1.4-7.8 2-4.1.7-9.2.9-11.3.5-16.4.8-5.1.2-4.7-.2-1.9-1.1-4.4-1-8.4 0-13 13.2zM1035.2 530.7q-4.5 4.6-10.7 16.3-6.3 11.8-11 16.1-8 7.1-20.6 6.7l-2-.1q-2.5-3.5-2.3-7.3.1-4.3 6.6-12.8 6.6-8.5 6.7-13.2.1-2.2-.7-4.1-12.4-7-11.8-25.4.3-10.2 2.4-20.5 3.9-5.3 7.6-6.4 2.4-.8 11.3-.5 1.7.1 5.3 0 3.6-.1 5.6 0 12 .4 15 6.5z" class="s10"/><path fill-rule="evenodd" d="M250.4 752.2q.7 12-.3 23.7-.9 11.6-5.3 23.1-5 13-11.3 22.2-6.3 9.3-15 13-1 2.1-3.8 4.9-2.8 2.8-6.1 6.6-8.1 8.3-37.5 14.1-8.2.9-17.4 1.2-9.2.4-18.6-1.4-11-.5-19.7-2.8t-15.9-6.3q-5.4-3.3-12.7-10.8-7.3-7.4-14.5-17.9-7.1-12-11.4-21.1-4.3-9.1-5.4-16.9-2.6-23 5.5-28.6 1.7.2 3.1 0 1.5-.2 3.1-.5t5.1-1.1q3.5-.8 7.1-1.6 3.7-.9 6.9-1.6 3.3-.8 5.3-1.1 18.5-3.1 28 5.7 2.2 13.2 9 22.1 6.8 9 19.9 16.2 3.7 2.2 6.6 1.7 2-.3 5.5-2.5t5.9-2.6q2.9-.5 6.5 1.7 4.4-4.9 2.6-12.6l2-.3q2.5-.4 5.9-6.2-4.6-2.9-5.2-7.5-.2-1.4 0-3.3t.3-4q.2-2.2.1-4.3-.1-2.1-.2-3-.7-8.3-14.9-19.1-14.2-10.7-40.1-26.1.2-1.9.2-3.3 0-1.5-.1-2.4-1.1-8.7-14.6-8.8-17.2-9.8-29-19.8t-18.6-17.8q-10.5-12.3-16.7-26.3-6.2-13.9-7.2-30.6-3.3-22 .7-39.7 3.9-17.7 17.4-33.1 11.3-12.6 26.6-19.1 15.3-6.5 36.6-9.5 33.6-6 57.8 4.5 24.3 10.5 34.3 39.3 2.6 6.6 6 13.3 3.4 6.7 4.2 13.1 2.4 21.2-22.6 25.3-4.1.7-8.9 1-4.8.3-10.8-.6-5-.1-9.7-.7-4.7-.7-9.4-1.3l-7-18 2.4 1.9 3.8-6.2q-9.9-5-18.8-7.5t-18.3-3.8q-3.1 2-6.3 6.5-3.2 4.5-5.2 8.5-2.1-.1-4.7-1.1-2.7-.9-6.4-3.6-7.8-5.3-10.6-4.8-3.3.5-5.5 6.5.5.4 3.8 1.7 3.3 1.4 9.1 3.7 9.7 3.6 10.3 8.1.1 1 .1 2.4-.1 1.4-.7 2.9 1.2 5.9 5.5 11.7 4.4 5.9 11.8 11.2 8.9 7.4 14.2 12.6 5.3 5.2 7.7 7.7l-.6 1.2 4.7 3.9c0-1.6.1-.7 2.3-1l4.9-.9 51.8 36.5q1.7.2 5.9 3.7 2.8 2.3 8.8 13.1 2.3 4.3 5 7.1 2.6 2.8 5.8 4.2 5.6 10.8 9.1 21.7 3.5 10.9 4.3 23.4 2.3 4.3 3.1 10.7zM67.6 585.8c-3.3 2.5 3.4 6.1 6.2 5.6 2.7-.4 6.5-4.9 4.1-7.3zm44.3 208.9-7.3 2.1v5.1l6 .4zm12.5 17.7-6.8.4 1.2 7.8 8.3-2.6zm-10.8-191.7-7.8-1.9 1 10 7.5-2.8zm18.7 21.4-10.4.9 3.5 8.5 7-2.5zm-3.6-125.9-7.9-2.6 2.7 9.9 5.7-3.6zm52.5 306.4c-1.3-1.3-4.9-3.3-6.6-3l-5.5.7 1.2 1.8 4.7 4.4zm1.9-119.7c-1.4-1.6-3.2-3.9-5.4-3.5-4.8.8-4.4 1.3-5.4 3.7l2.5 3.5 5.3-.9q2.9-.4 3-2.8zm13.9 67.5c-1.1-1.7-2.7-3.7-5.2-3.3-1.9.3-3.2 2.8-3.8 4.8q1.6 2.5 4 2.1 5.8-.9 5.3-1.3zm36.9-14.9q-2.9-.8-5.2 2.2-1.8 2.3-.5 5 2.9.8 4.5-1.1 3.6-4.6 3-4.6zM205 812.6l-7.5.6.1 8.2 6.6-2.6zm24.8-47.6c-4.1.7-7.2-1.7-7.7-3.1l-2.1 2.7c-.4 2.7 2.9 5.9 4.5 5.7 3.8-.7 5.9-2.8 5.6-3zM638.4 815.6q-3.1 10.8-19.1 14.2l-7 1.9q-4.1-3.3-8.2-2.2-1.5.4-3.7 1.9-2.2 1.4-4.2 2.8-2 1.5-4.1 2.7-2.1 1.2-3.5 1.6-8.9 2.3-17.7-15.3-2.9-6.2-5.6-11.9-2.8-5.8-6.2-12.3-8.6-.3-17.1 1.6-10.6 3.2-16 7.7-5.5 4.5-7 11.9-.1 6.5-.3 12.2-.1 5.7-.7 11.9-.3 13.1-16.1 17.3-1.9.5-4.7 1-2.8.6-5.9 1.2-3.2.6-6.2 1.2t-4.8 1.1q-1.1.3-3.8 1.4-2.6 1.2-3.7 1.5-5.1 1.8-9.7-.9-4.7-2.7-8.9-8 .2-2.7.6-5.2.4-2.5.6-6.9l-3.4-95.9q-.3-3.3-1.1-7.7-.7-4.4-1.8-9.7.2-15.3-.3-35.7-.5-20.5-2.6-48.6l-4.5-84.3q-.5-9.4-.8-15.4-.3-6 .7-8.9 1-5.9 4.9-9.5 3.9-3.7 9.8-5.3 1.8-.4 5-.9 3.2-.4 6.8-.9 3.6-.5 6.6-.9 3-.4 4.9-.9 6.2-1.6 10.8-5.5-.3.1 3.1-1 3.5-1.2 10.8-3.1 8.1-2.2 13.3 2.1.9.6 3 3.9 2 3.4 6 9.3.4 2 1.6 5.8 1.2 3.8 2.7 8 1.5 4.2 2.9 8.1 1.5 4 2 6.4 1 5 .8 9.4 7.4 5.4 12.5 20.1 2 5.9 3.8 11.7 1.9 5.8 4.6 11.2l40.9 108q8 6.5 10.2 16.8l.4 1.6-1.8 2.7 4.3 3.6q1.8 6.5 5 14.5 3.3 8 8.3 18.4 4.8 11.7 8 20.4t4.9 14.8zM470.9 584.3c-1.1-1.4-2.1-3.8-3.8-3.4l-2.1 1-.3 2.8q.1 3.9 5.2 2.5l1.4-.8zm7 21.6q-1.7-2.2-4.6-1.4-2.9.7-3.5 3.5l2.3 2 2.6-.7q2.6-.7 3.2-3.4zm4.8 33.4-2.6-3.2c-1.5.6-4 2.6-3.6 4.5.4 1.6 3.1 3.8 4.7 3.9l1.7-4.4zm20.6 96.5-2.2.6q-5.3.5-6.7 6.5.9 2.4 3.8 1.6l4.8-1.3q1.5-1.7.8-5zm-8.4-148.3q.6-.6-10 2.2-5.2 1.4-7.6 4.7l5 3.4q.7-2.4 8.8-4.5 4-1.1 3.8-5.8zm-3.4 31.3q-.7.2-1.4 1.9-.1.2-.1.5.5-.3.9-.5 1.6-.9 2.1-2.3zm-4.1 3.9q-1.8 1.1-3.3 2.6-1.4 1.5-1.4 3.2c1.5 1.1 4.6 2.9 5.4 2.7.5-.1.3-2.5.8-3.7 1.1-2.3-.2-.6.7-3.6.3-1.1.2-1.8.4-2.7q-1.2.7-2.6 1.5zm55.7 108.6q-.2-.8-.9-1.7-.8-.9-1.2-.8l-15.3-55.4 2.1-4.1-3.4.1q-3.7-6.4-6.3-13.2-2.6-6.9-3.2-15-4.5-4.9-9.1-2.8l-2.2 1q-6 8.1-2.5 17.2-4.6 7.7-.1 28.6 4.4 18.8-5.2 24.4l-.2 1q.2 1.2 1.5 1.7 1.3.6 2.9.8 1.6.2 3 .3 1.3 0 1.9.8-.7 2.3-.8 4.5-.1 2.2.5 5.1.4 1.6 1.3 4 .9 2.3 1.8 4.7.8 2.4 1.8 4.9.9 2.6 1.3 4.3 1.6 7.8-5.5 12.7l2.3 1.6q1.3-3 4.5-4.7 3.1-1.7 7.8-3.4l14.7-3.9q1.5 0 3.1 3.9l-.4-2q.3-.5 1.1-2.3.8-1.7 2.8-4.9 2.6-4.1 1.9-7.4zm-25.7 50.3c-1.3-1.1-3.1-3.3-5.1-2.8l-5.3 3.4 7.3 5zm-16.9-177q-4.6-3.5-6.5-3-1.8.5-1.6 3.1l4.6 3.5.7-.2q.4-.1 2.8-3.4zm39.2 170.7c-1.4.7-2.1-.2-3.7-.8-1.5-.6-3.1-2.4-5.4-3.8-4.6-3.1-9.1-2-11.5-1.3q-2 1.8-1.5 3.9.5 2.4 3 3.1 1.1-2.1 3.7-2.8 2.9-.7 8 3.1 4.7 3.9 6.5 3.5 1.5-.4 2.5-5zm3-93.8c-.8-1.2-2.5-3.6-3.7-3.3-2.2.6-4.9 3.8-4.4 6.2l.2.8 2.2-.5c1.7-.5 5.3-1.3 5.7-3.2zm25 79.6c-2.6-2.8-6.4-4.9-10.5-3.8-2 .6-5.4 1.7-7 2.6-1.6.9-1.3 2.9-2.7 4.4l2.2 1.6q1.3-1.2 2.3-2.1 1-.9 2.4-1.3 1.1-.3 3.1-.2 2 .1 4 .4 2 .4 3.8.5 1.8.2 3 .3zm1.2-14.2c-1.3-2.5-3.7-6-6.9-6.5-3.2-.4-6.3 1.2-9.4.9 1.5 2.5 3.5 5.7 6.8 6.1 3.1.4 6.6-.8 9.5-.5zm17.6 31.3q-.7-3.2-4-2.4c-1.8.5-7.1 4.5-7 6.2l9.6.5q1.5-3.8 1.4-4.3zM751.1 643.7q-.4 14.1-1.1 26.6-.7 12.5-2.9 24.1-4 16.1-8.9 27.5-4.9 11.4-11.6 17.3-3.9 4.3-6.8 6.3t-4.8 2.8q-3.6 1.3-9.7 3.3-6.1 1.9-13.7 4.1-.3-.3-11.6-.7-11.3-.4-33.3-1.2-7.5-4.4-12.7-7.5-5.3-3.1-8.1-5.2-5.8-4.2-9.4-8.8-3.7-4.7-5.9-10.2-.4-1.4-1-4t-1.4-5.5q-1.5-5.5-3-10.6-1.6-5.1-2.4-9.6-4.2-57-5.9-84.7-1.8-27.8-2.8-27.4-.2-5.6 5.1-7.3 1.9-1.9 1.8-4.2-.1-2.6-5-1.6-.9-14.4-.5-24.8.4-10.5 1.5-17.9 3-24 14.8-37.5 1.6-1.6 4.3-4.1 2.7-2.6 7.3-6.1 2.9-2 5.4-4.4 2.6-2.3 5.5-4.5t5.9-3.7q2.9-1.4 5.9-1.5 2-.1 3.6.2 1.7.2 3.8 1.3 2.9-2 6.5-3.1t7.9-1.4q5-.2 15.7 1.5 5 .2 8.8.3 3.8.2 6.5.5l.1 1.4q-.1-.3 1 .6 1 .8 3.1 3.3 4.6-.2 8.7 2.8 4.1 2.9 7.7 9.1 4.9 7.2 8.2 11.1 3.3 3.9 5.1 5.3 6.4 19.8 9.9 34.3 3.6 14.5 4 24.1.2 6.3-.6 12.3-.7 6-2.2 11.2-2.6.2-6.8.5-4.1.4-9.7 1.8-5.3 1-9.4 1.8-4.1.7-7.1.5-9 .8-15.1-2.2-6.1-3.1-8.7-9.3 1.9-3.4 1.7-7.5 0-1.1-.4-3.1t-.8-4.1q-.4-2-.9-4.2-.4-2.2-.4-3.3-.2-4.1 1.7-7.2-.4-1.1-.9-2.7-.6-1.7-1.3-3.5-.8-1.8-1.3-3.4-.6-1.7-.6-3.2-.1-2.6 1.4-4.9-2 .1-4.8-1-2.9-1.2-7-3.2-3.4-2.1-6.2-3.3-2.9-1.1-5.3-1.7-4.9 9.1-7.3 16.5-2.4 7.3-2.5 13.6.1 1.9.3 3.4.3 1.5.6 2.9-1.5 4.2-1.6 9 .1 1.5.5 4.1.4 2.6.9 5.3.4 2.8.8 5.5.5 2.8.5 4.3.2 5.2-1.6 9 2 1 2.1 2.5 0 .7-.9 2.4-1 1.8-.6 3.2-.2 3.4.4 8.2.5 4.8 1.1 11.8.6 6.7.9 11.8.4 5.2.5 8.6l1.1 20.3q.2 4.1 0 11.4-.2 7.2-.8 17.7 3.4 2.8 7.7 7.2 4.4 4.4 10.5 9.7 1-2.3 3.4-4.4 2.4-2.2 6.6-3.9 8.5-3.7 8.4-7.8-.1-1.5-.8-3.5-.8-2-2.5-4.5 2.7-6.1 2.4-15-.1-1.5-.4-4.1-.2-2.6-.7-5.3-.4-2.8-.7-5.4-.2-2.6-.3-4.4-.5-11.9 5.9-19.2l46.1-2.6q7.2 6.3 8.1 20.4zm-127.2-76c-.7-1.2-.9-6.9-1.8-6.8-1.5.1-5.9 5.3-7.6 7.8l9.4.9zm22.5-36.9-12.1-2.2 7.7 8.9q1.9-3.1 1.9-3.5zm6.2-20.8-5.1-3.2c-.9-.2-1.4 1.7-2 2.1q-.8.6-1.1 1.7c1.4 1.4 4.3 5 4.8 5l.6-.4c1.6-1 3.4-2.4 3.3-2.9zm31 209.5c-.9-1.4-2.8-2.7-4.3-2.7l-5.1 3.2-.3 1.1q.1 3 4.4 2.8l4.5-1.6zm20.8-210.7c-.7-1.4-1.8-3.1-2.9-3-1.3 0-6.9.7-7.3 2.2l5.9 4.2 2.9-1.1c.3 0-.3-.9 1.4-2.3zm2.1 190.5c-.7-1.4-1-3.6-2.8-3.5-3.6.2-8.1 4.1-7.9 4.4q1 .3 2.8 1.9 1.7 1.6 3.3 1.5c1.1-.1 4-3 4.6-4.3zm10.2-51.4h-1c-.2.1-.9-1.1-1.2-.7-.4.4-6.7 4.2-7.6 4.7l7.4 4.1c3.6-1.1 2.5-6.9 2.5-7.4zm7.9 36.2q-1.1-2.2-3.7-2.1l-5.6 4.3 5.2 3.9zM920.4 855.9q-.7 4.2-2.4 7.7-4.3 3-9.1 2.1-1.2-.3-2.6-.8-1.5-.5-3.1-1t-3.3-1.1q-1.6-.5-2.7-.7-3.8-.8-7.8.6-1.7-1.2-3.5-2t-3.6-1.5q-2.9-1-7.5-1.5-3-.2-5.2-.6-1.5-.3-2.7-.1-13.7-3.1-16.7-13.6-.6-3.5-1.2-10.5t-1.6-17.5q-1-10.9-1.9-18.6-.9-7.6-2.1-12.6-1.7-3.7-2.6-7.4-1-3.6-2.3-7.7-3.1-9.2-2.1-15.8.3-1.7.8-3.7.5-2.1 1.9-3.5-.3-.5-2.7-2.7-2.3-2.2-7-6.5-5.3-5.3-10.8-6.4l-7.1 5.5q5.4 4.9 3.9 11.9-.2 1.2-.7 3.3-.5 2-1.3 4.4-.7 2.4-1.5 4.6-.7 2.3-.9 3.5-.6 4.2 1.2 7.1-2.9 3.7-3.4 7-.3 1.7-.3 4.1 0 2.3.2 4.9.2 2.6.4 5t0 3.7q-.2 1.2-.6 2.4-.4 1.2-.9 2.4l-.8-.1q.8.1-5.9 3.5 5.5 3.7 4.3 14.1-2 10.4-2.6 15-.5 4.6-.7 3.7l-7.4 5.4q-1.9-.4-5.8-.7-4-.4-10.1-.7-4.6-.1-8.5-.6-4-.6-7-.8-9.3-1.8-15.6-5.8-6.2-4-10-9.5-.2-3.9.1-7.7.2-3.8.8-7.9.5-3 1.8-7.6 1.3-4.7 3-10.8 3.3-13.5 6.2-19.8 5.1-37.1 9.2-65.3 4-28.1 6.6-46.9 2.5-18.7 3.6-27.8 1-9 .4-7.4-.1-2.1.7-6 .8-4 2.5-9.6 1.3-5.8 2.2-9 .9-3.3.4-2.5 4.2-33.9 5.2-51.3t2-18.9q2.6-16.6 11.6-20.4 1.9.4 6 1t10.6 1q4.7-.4 8.6.2 3.9.5 6.9 1.1 17.6 3 25.3 14.8.1 1.8.1 3.3-.1 1.5-.3 3.1-.3 1.7-1.1 4.3-.8 2.6-2 5.6-1.3 3-2.1 5.8-.8 2.9-1.1 4.5-.8 5 .8 9.6l-.7-.2q.7.2-6 3.6 1.3 2 2.5 3.9 1.2 2 2.8 1.8.4 1.9.3 2.7-.3 2.1-3.2 3.2-3.6 1-4.5 1.7l3.4 5.4-4.8 3.7q3.5 2.4 5.1 11.8.7 4.8 2 7.4 1.4 2.7 3.8 4l-.3 2.1-1.9-.4q-3.4.2-3.7-2.9-2.4.8-3 4.6l-.3 1.6q1.9 4.7 8.6 11.2 5.3-2 5.8-7.9l.1-2.6-1.5-2.8q.3.5.7.5.3.1.7.2 1.5.3 7.1-3.8-.2-.9-.2-1.9-.1-1.1.1-1.9.3-2.1 1.9-4.8 1.5-2.7 3.4-5.8 1.8-3 3.4-5.9 1.6-2.9 2-5.4l2.2.8q5.1 1.5 8.5-3L876 575q2.3-2.5 5-7.5 2.7-5.1 5.9-13 3.5-7.9 6.3-13.1 2.7-5.3 5-7.4 7.6-9.7 19.1-7l3 .6q1 .6 1.8.8.7.1 1 .6 1.9.4 4.5.5 2.7.1 5.7.5 3 .3 5.8.9 2.8.5 4.3.8 7.8 1.6 13 4.9 5.2 3.4 7.4 9.4-5 9.8-17 30.1l-33.5 49.1Q902 643.6 894 657.7q-7.9 14-10.2 23.5l13.6 64.8q.2 1.3 1 2.5.7 1.2 1.1 3.9.3 2.6.6 5.7.3 3 .9 6.4.6 3.3 1.5 6.1 1 2.7 2.6 4.7-.6 1.2-.7 1.6 0 .4-.2 1.7-1.1 6.6 4 13.6.3 5.2 2.1 12.9 1.9 7.6 5.5 18.6 3.4 10.1 4.3 18.2.8 8.1.3 14zM790.2 659.8q-1.2-2.4-3-2.8-4.5-.9-7.5 3.3l6 1.1q3 .6 4.5-1.6zm28.7-75.4q-3.4-5.4-4.9-5.7c-.9-.2-3.3 1-4.3 2.3q2.7 2.6 5.3 5.3c.8.1 3-.9 3.9-1.9zm5.9 40.6q-1.3 1-2.7 1-1.3-.1-2.8-.4-10.4-2-10.8-1.7.7 4.9 7.4 6.2l3.8.7q0-.4.9-.9.8-.4 1.7-1.1.9-.7 1.5-1.4.7-.7.9-1.6zm-16.7 105.6q-5.9-3.7-9.2-4.4-3.8-.7-9 .8l-.3 2.1q-.6 3.7 1.4 5.4 3.2-5.3 8.4-4.3 7.5 1 8.7.4zm23.6-69.5q-1.4-5.4-3.6-5.9-.8-.1-2.5.9-1.7.9-3.4 2.3-1.8 1.3-3.4 2.3-1.7 1-2.8.7-1.5-.3-2.8-1.8-.5.3-1.1.9-.7.5-1.5 1.2-.9.7-1.6 1.6-.8.9-.9 1.7l-.1.9q3.1-.3 6.2-.5 3.1-.3 6.2-.5 7.8-.6 11.3-3.8zm-9.4-20.3c0-1.7-.8-5.1-2.5-5.4-1.8-.4-4.4 3-4.9 4.6l3 2.1.7.1q.4.1 3.7-1.4zm-3.4 36.2q-1.9-2.9-5.6-3.7-4.4-.8-5.1 3.3-.5 2.9 2.9 3.6l4.8.9q2.7-2.4 2.8-2.8zm15-71.2q.1-.4-.4-1.2-.4-.7-1-1.7-.7-1-1.5-1.8t-1.2-.9q-3.3-.6-3.9 2.7-.4 2.9 1.7 3.8l1.9.3q3.6 1.6 4.4-1.2zm-2.5 96.3q.2-1.2-1.6-4.1 1.1-.2-1.5-.8-2.2-.4-8.5-1.6-5.6-1.1-6.7 3.4 3.3 3.6 8.5 4.6 5.6 1.1 9.7-1.1zm19.3-44.2q-9.1-3.5-14.7-7.8-5.7-4.3-7.3-10.6l-2.9 6.2q3.8 2.5 7.9 5.5 4 4.2 4.4 9l3.7.7q3 .6 5.4-.2 2.4-.8 3.5-2.8zm-23.2 30.2q-.9-1.5-1.4-2.2-.4-.7-1.2-.9-4.8-.9-6.3 6.1.7.5 1.1.6l.3.1q1.9.3 7.5-3.7zm-8 38.7q.5-3.3-3.9-4.2-4.1-.8-4.8 3.4-.4 2.9 3.3 3.6l2.6.5q2.7-2.9 2.8-3.3zm24.7-40.1q-1.8-4-7.6-10.2 1 1.4.7 3.2-.3 2.1-2.8 2.9 4 4.2 6.9 4.8 1.2.2 2.8-.7zm-7.6-10.2q-.4-.5-1-1l1 1zm-1.2 39.7q.5-3.3-2.1-3.8-1.9-.4-6.3 3.4.8 2.3 3.4 2.8l2.6.6q2.2-2.2 2.4-3zm15.9-74.4c-.2-1.8-1.3-4.1-2.5-4.4q-3.8-.7-4.3 3l.5 2.3 1.5.3q3 .6 4.8-1.2zm15.2-3.9q-.7-2.7-3.7-3.3l-1.9-.4q-2.4.8-2.7 2.9-.6 3.8 2.4 4.3.7.2 1.5-.3.9-.5 1.8-1.4.9-.9 1.6-1.4.6-.5 1-.4zM848.8 697l-4.9 3.7 3.1 3.6 4.8-3.7zm21.4-28.4q-2.1-1.3-3.9-2.1-1.8-.8-3.7-1.1-9.3-1.8-11.7 6.2 1.7 1.7 3.9 2.1 1.1.2 3-.7 1.9-.9 4-2 2-1.1 3.9-2 1.9-.9 3.4-.6zm-25.2 67q-.7-2.7-2.6-3.1c-1.4-.3-5 .2-6 1.7l1.9 2.5.3.5c.5.1 4.2-.3 6.4-1.6zm25.4-107.3c0-.5-.3-4.1-1.5-6.4l-4.8 3.8c.8-.4 1.9 2.8 3.6 5.1l2.2-1.7zm-6 62.2q.8-.2-1.4-.7-1.9-.4-6.7-1.3-3.7-.7-4.5 4.3-.4 2.4 2.6 3 2.6.5 3.7.8 1.1.2 1.7.1.6-.1.8-.5.3-.4 1.2-1.5 2.2-1.7 2.4-2.9zm-8.5 29.6q.6-3.8-3.9-4.6-3-.6-4.2 2.1l5.3 5.4q2.7-2.1 2.8-2.9zm9.1 5.2q0-2.1-2.6-2.7c-1.2-.2-4.7.7-5.6 1.9l4.1 2.6h.4q1.1.3 3.7-1.8zm13.1 51.4-4.9-.9q-2.6-.5-3.7 1.8 1.1 2.4 3 2.8l2.6.5q2.8-2.9 2.8-3.3zm10.2-25.9q-2.6-3.1-2.9-3.1-3-.6-3.6 3.1-.5 2.9 1.7 3.8zM1035.6 852.8q-2.6 18.8-23.4 13.9-2.9-.7-7.3-2.2-4.5-1.5-10.4-3.9-12.1-5.3-18.6-6-1.4-1.7-1.9-3.5t-.1-4q.2-1.1.7-2.4l1.2-2.8q.6-1.3 1.2-2.9.6-1.5.7-2.2.5-2.9-1.3-5.9 7.7-30.8 11.8-46.3 4-15.2 5.4-12.3-1.2-2.7.2-15.1 1.4-12.8 4.9-36.3 3.4-23.4 8.8-57.9 5.4-34.4 12.8-80.5 4.5-6.8 11.9-9.3-1.2-.7 5.3.7 6 1.4 20.2 4.5 6.7 1.8 11.8 4.1 5.1 2.2 9.3 4.6 1 4 1.4 7.8.3 3.8-.2 8.5-.8 2.8-2 6.5-1.1 3.6-3 8.8-3.5 10.1-4.4 15.5-.7 3.9-1.3 9.5-.7 5.7-1.3 13-.7 7.7-1.9 13.4-1.1 5.7-1.4 9.4-.7 3.5-1.8 8.9t-3.1 12.7q-1.6 7.5-3 12.6t-3.2 8.1q-5.4 36.5-9 62.3-3.5 25.9-6.8 44.6-.3 2.1-.6 5.4-.2 3.3-.5 6.8t-.3 6.7q-.1 3.1-.5 5.3zm-9.1-149.9q0 .3-.1.7c.5.1 1 .2 1.3.2zm-3.8.1q-2.3.4-5.5 1.6c.2 1.5 2.5 3.5 4.7 3.8l1.3.3q1.1-.9 2.6-1.7c.9-.6.6-2.3.7-3.5-1.2-.3-2.8-.7-3.8-.5zm20.1-24.3c-.1-.8-.8-2.9-1.8-3.1-1.8-.4-5.7 1.6-8.7 3l3.1 2.5q.2.5.5.5.4.1.7.2 1.6.3 6.2-3.1zm-20.1 115.7c-.1-.7-.8-2.8-1.8-3-1.7-.4-4.3-2.2-7.2-.8l1.6 6.3q.2.4.6.5l.6.2q1.6.3 6.2-3.2zm5.5-11.6q-2.5-4.6-4.1-5c-.7-.1-3.1.9-4.2 2.1l2.9 4.4.6.5c.4.1 3.1-.9 4.8-2z" class="s4"/><path d="M1025.9 518.9q-4.4 4.6-10.7 16.3-6.2 11.8-11 16.1-8 7.1-20.6 6.6h-2q-2.5-3.5-2.3-7.3.1-4.3 6.6-12.8 6.6-8.5 6.7-13.2.1-2.2-.7-4.1-12.3-7-11.8-25.4.3-10.3 2.4-20.5 3.9-5.3 7.7-6.4 2.3-.8 11.2-.5 1.7.1 5.3 0 3.6-.1 5.6-.1 12 .5 15 6.6z" class="s4"/><path fill-rule="evenodd" d="M434 755q-.2 3.7-.6 7.6-.4 3.9-1.4 7-.9 3.1-3 5.4-2.1 2.4-5.4 2.5-3.3-1-6.2-1.5-3-.5-6.6.1-1.8.1-4.9.6-3.1.6-6.3 1.2-3.3.5-6.4.9-3.1.3-4.9.4-7.2.4-15.4-3.7-5.8-9.1-8.4-17.9-2.5-8.8-2.9-19.4-.8-1.6-3.9-10.8-3.1-9.2-9.2-27.3-4.8-19.3-8.3-30.9-3.6-11.7-5.1-14.4 1.8.3 4.3.2 13.1-.7 16.8-10.2-.8-.8-1.9-1.3-1.1-.6-2.9-.5l-6.9.3q-1 3.7-3.5 3.9-.8 0-1.9-.4-1.1-.3-2.2-.9-1.1-.5-2.2-1.1-1.1-.5-1.9-.5-2.5.1-3.8 4.2l-2.6-1.9q-5.7 2.8-7.2 13.4-.7 10.2-5.3 13.7 3.8 3.1 4 7.1 0 2.1-.7 6-.8 3.9-.7 6.3.1 2.1 1.1 3.8.9 1.8 3.2 3.8-.1-3.3.3 6.5.3 9.3 1.6 32.9-.3 11.4-.1 20.5.2 9.2-1 17-3.2 3-8.2 4.4-5 1.5-11.6 2.2-14.2.3-20.5.6-6.4.3-5.3-.1-11.9-4.4-12.4-19-.2-5.3 1.8-9.4l-3.4-2.7q-.1-22.4-.2-39.7-.2-17.3-.5-30.1t-.4-21.2q-.2-8.3 0-12.8-.2-6.5 1.9-9-2-13-2.9-27.2-.9-14.2-.8-30.9l-2.4-51.2 1.4-2.9-5.8-54.7q4.6-13.2 13-13.2 2.5-.1 4.4 1-.4.4 4.7.2 5.1-.3 16.4-.8 5.1-.3 9.2-.9 4.2-.6 7.8-2 6 4.2 11.2 11.5 5.2 7.3 8.5 17.7 2.2 9.3 4.9 18.1t5.6 17.6q2.8 7.6 5.1 14 2.2 6.4 3.9 12.5-4.9-4.7-6.3-4.6h-.8q-.3 0-1 .5l-4.2 4.6q1.5 2.4 3.9 4.1 2.5 1.8 6.2 3.6 5.6 3 8.5 11.4 1.2 3.6 4.5 5.1 3.4 1.4 8.4 1.2l5.9-.3q1.7-2.1 3.6-4.4 1.9-2.4 1.8-4.8-1.5-2.4-4.4-2.2h-1.5l-2 3q.8-6.6.9-13.3.1-6.7-.2-14.4 0-9.8-2.2-29.2-1.1-9.3-1.9-16.8-.9-7.5-1.1-12.4-.2-5.3 0-9.6t.5-7.1q.3-2.1 1.3-3.6 1-1.4 2.8-2.3l3.6-1.8 3.6-1.8q5.1 2.2 12.4 1.8 1.1 0 3.7-.4 2.5-.3 5.2-.6 2.7-.4 5.1-.7 2.3-.3 3.8-.4 7.6-.3 11.4 3.8 3.8 4 4.9 12.1-2.2 1-2.1 2.6 0 .4.4 1.2.4.8.6 1.8.2 1-.1 2-.3 1.1-1.4 1.9 1.4 44.8 2.5 77.9 1.1 33.1 1.9 54.2.8 21.6 1.2 31.7.4 10.2.8 9.8-1.1.8.8 26.2 1.9 25.4 6.4 75.6zM280.7 492.5q-1.6-2.4-4.9-2.2-3.6.2-5.3 2.7l1.9 3.7 4.7-.2c1.5-.1 2.9-2.4 3.6-4zm5.1 132.6-4.1 4.7 3.9.9c2.5-.1 5.2-.3 5.9-2zm13.9-53.3q-2.6-2.7-4.8-2.6-3.7.2-6.7 5.6.6-2.5 2.4-2.6 1.1 0 3.2 1.1 2 1.1 2.7 1.1 1.9-.1 3.2-2.6zm-12.9 80.8q2.2 8.5 8.7 8.2 2.6-.2 4-1.9zm10.4-36.4-5.3 5.5 3.4 3.7 5.4-5.6zm-.8 80.8q-1.1-2.4-3.3-2.3c-1 .1-5.7 3.7-6.3 5.4l3.1 1.8.7 1.4c.5-.1 4.2-4.6 5.8-6.3zm26.3-92.9q-.7-.3-1.4-.3-.8 0-1.5.1-2.5.1-5.1.8-2.5.8-5.7 1.7-4 1.4-6.7 2.2-2.7.7-3.4.8 1.1.3 3.5 1t4.6 1.2l4.4 1q2.2.5 3.7.5 5-.3 7.8-4.5zm-8.4 26.9q-.1-1.2-.3-2-.2-.9-.6-2.1-.2 5.3-6.6 8.5-6.8 3.6-8.1 7.7l3.8 4.3q2.1-1.3 4.3-2.6 2.1-1.4 3.9-3.3 1.7-1.9 2.7-4.4 1-2.5.9-6.1zm7.2-57.8q-1.1-.3-1.5-.3h-.7q-1.1.1-2.9.4-1.8.3-3.9 1.6-2.9 1.7-4.5 2.4t-2.3 1.2l1.9 1.9q.3 0 2.3-.3 2-.3 5.6-1.7 4.7-.6 6-5.2zm-.3-8.9q-1.6-2.4-3.8-2.3-1.1.1-2.5.7-1.4.7-2.9 1.6-1.4.9-2.6 1.8-1.3.8-2.3.9-.4.4 6.5.1 5.5-.3 7.6-2.8zm-3.3-28.8q-.9-2.8-4.1-2.6-3 .1-3.9 3l2.2 1.9h1.5q3.3-.2 4.3-2.3zm17.8 46q-5-4.7-6.4-4.6-3.6.2-3.5 3.8.1 2.9 1.9 3.2-1 1.3-2.4 1.7-1.5.5-3.3.6-2.9.2-4.9.9-2 .7-3 1.9 1.1 0 2.6.7 1.5.8 3.1 1.5 1.7.7 3.4 1.3 1.6.5 2.7.5 2.2-.2 4.3-2.7l-3.3-3.3zm-10.9-37.4q-1.9-2.3-3.4-2.2-1.4 0-4.5 6.7.9 2.4 3 2.3l2.9-.2q2.2-1.3 2.1-4.5zm25.6 61q-3.4-3.9-7.8-3.7-2.1.1-5 1.7-2.9 1.6-6.4 4.6-4.9 4.7-7.3 7.3-2.5 2.5-2.9 2.5 1.2 2.4 4.9 2.2h1.8q2.7-5.1 10.6-8.3 4.6-1.8 7.9-3.4 3.2-1.6 4.2-2.9zm-9.9-11.3c0-.5-.8-1.9-2.3-4.6l-9.8 9.5 2.2 2.9c.5-.8 1-1.4 1.9-2.1 1-.8 2.1-1.6 3.1-2.2.9-.6 1.7-.9 2.6-1.4 1-.4 1.9-1.1 2.3-1.7zm-3.1-25.9-3.5 4.7 3.8 4.2 3.8-4.6zm10.4 60.6q-.1-3.3-4.1-3.1-3.3.2-6 4.8.8 2.4 3.7 2.2 4.7-.2 4.3-.6 2.1-2.5 2.1-3.3zm3.7 38.9q-1.1 0-2.4-.7-1.3-.8-2.5-1.9-1.1-1.2-2-2-1-.7-1.3-.7c-1 0-1.7.5-3.6 2.7l7.9 6.5zm10.4-53.1c-1.6-1.6-3.1-2.6-3.8-2.6q-1.1.1-2.3 1.8-1.2 1.6-2.3 3.5l-2 3.8q-1 1.9-1.7 2.3l2.3 2.7zm-.9 71.1c-1.6-2.1-2.7-2.9-4.1-2.8q-3.3.1-3.1 5v.8c0 .3 0 .7.9 1.8zm11.8-32.5q-3.4-1.9-5.6-1.8-8.3.4-10.5 9.5 1-1.3 3.3-2.4 2.4-1.1 4.7-2.1 2.3-.9 4.7-1.6 2.3-.7 3.4-1.6zm6.5 17.6q-2.6-1.9-5.4-2.8-2.8-.9-6-.7-6.2.3-10.8 4.6 3.1 4.3 6.4 4.1 1.4 0 3.4-.7t4.3-1.9q2.3-1.1 4.5-1.8 2.1-.7 3.6-.8zm-8.9-32.6q-.1-.8-.1-1.2 0-.4-.4-1.6-2.3-2.3-3.4-2.3-.3.1-1 1.5-.7 1.5-1.5 3.1-.9 1.7-1.9 3.4-1 1.7-2.1 1.7l2.2 1.9q.4-.4 1.8-1.1 1.5-.6 2.9-1.3 1.4-.7 2.5-1.8 1-1 1-2.3zm11.7-45.7c-1.3 4.4-4.6 4.8-9.5 8.6-2.4 1.8-5.1 1.9-6.7 2.7q-2.3 1.4-3.3 3.1 1.1.3 1.8.3.8-.1 1.5-.1 2.5-.1 5.2-1.1 2.7-.9 6.3-2.7l10.7-6.6zm-2.8 22.5q-1.9-2.4-5.9-2.2-4.4.3-4.2 4.3.1 2.9 3.4 2.7l4.7-.2q1-1.7 1.5-2.3.6-.7.6-1.1zm-1-71.2q-.1-3.2-2-4.4-2 3.8-2.9 5.5-.8 1.6-.8 1.2.1 2.5 2.3 2.3 1.4 0 3.5-2.6zm17.9 94.9q-1.1-7.3-10.1-6.9-9.1.5-8.5 6.9l.4.8q3.4 2.7 9.2 2.4 2.5-.1 4.7-.8 2.2-.7 4.3-2.4zm-12.4-17.9-4.4 6.2 3.5-.7q3.7-.2 4.7-2.7zm3.2 44.4c-.1-.5-.8-1.7-3.5-4.9l-3.5 4.6 3.1 3.7h.4q1 0 3.1-2.6zm8 9.4q-1.1-1.1-2.3-2.7-1.5-1.6-2.2-1.5-3.6.1-3.5 3.4.1 2.8 2.7 3.1l1.4.3q3.7-.1 3.9-2.6zm5.5-84.1q-.1-3.3-4.8-3-2.6.1-3.9 2.6.3 0 .9.8.6.7 1.5 1.5 1 .8 1.7 1.4.8.5 1.5.5h.7q2.4-3.4 2.4-3.8zM399.1 714l-3.4-.8c-1.5.1-5.8 2.5-6.5 4.2l2.7 2.3 3-1c1.4-1.7 7.3 2.1 4.6-3.9zm3.1-62.4q-.5-2.4-3-2.3c-1.5 0-4.7 2-4.9 3.6l3.1 3.3 2.7-1.5c.4-.1.4-1.4 2.1-3.1zM1289.4 805q-.2 3.9-.6 7.9-.5 4.1-1.5 7.3-1 3.3-3.2 5.7-2.2 2.5-5.6 2.6-3.5-1.1-6.5-1.6-3.1-.5-6.9.1-1.9.1-5.1.7-3.2.6-6.6 1.2-3.4.6-6.6.9-3.3.4-5.2.5-7.6.4-16.1-3.9-6.1-9.5-8.8-18.7-2.6-9.3-3-20.3-.9-1.7-4.1-11.3-3.2-9.7-9.6-28.5-5-20.2-8.7-32.4-3.7-12.1-5.4-15 1.9.3 4.6.2 13.7-.7 17.5-10.7-.8-.8-2-1.4-1.1-.5-3-.4l-7.3.3q-.9 3.9-3.6 4-.8 0-1.9-.3-1.2-.4-2.3-1-1.2-.6-2.4-1.1-1.1-.6-1.9-.6-2.7.1-4 4.5l-2.8-2q-5.9 2.8-7.4 13.9-.8 10.7-5.6 14.4 4 3.2 4.1 7.4.1 2.2-.7 6.2-.8 4.1-.7 6.7.1 2.1 1.1 4 1.1 1.8 3.4 3.8-.1-3.4.3 6.8.4 9.8 1.7 34.4-.3 12-.1 21.6.1 9.5-1.1 17.7-3.3 3.1-8.5 4.6-5.3 1.6-12.1 2.3-14.9.3-21.5.6-6.7.4-5.6-.1-12.3-4.5-12.9-19.8-.2-5.5 1.9-9.9l-3.6-2.8q-.1-23.4-.2-41.5-.2-18.1-.5-31.5-.3-13.4-.5-22.1-.1-8.7.1-13.4-.3-6.8 1.9-9.5-2-13.5-3-28.4-1-14.8-.9-32.3l-2.4-53.5 1.4-3.1-6-57.1q4.8-13.9 13.5-13.9 2.7-.1 4.6 1.1-.3.4 5 .1 5.3-.2 17.1-.8 5.3-.2 9.7-.9 4.4-.6 8.1-2.1 6.3 4.4 11.7 12 5.4 7.6 8.9 18.5 2.3 9.7 5.1 19 2.9 9.2 5.9 18.4 3 8 5.3 14.6 2.4 6.8 4.1 13-5.1-4.8-6.6-4.7h-.8q-.4 0-1.1.5l-4.4 4.9q1.6 2.5 4.2 4.2 2.5 1.8 6.4 3.8 5.8 3.1 8.8 11.9 1.3 3.8 4.8 5.3t8.8 1.3l6.1-.3q1.8-2.2 3.8-4.7 2-2.4 1.9-5-1.6-2.4-4.6-2.3l-1.5.1-2.2 3.1q.9-6.9 1-13.9.1-7-.2-15.1 0-10.2-2.4-30.6-1.1-9.7-2-17.5-.8-7.9-1-13-.3-5.5-.1-10 .3-4.4.5-7.4.3-2.2 1.4-3.7 1.1-1.6 3-2.5 1.8-1 3.7-1.9 1.9-.9 3.7-1.9 5.5 2.3 13.1 1.9 1.1 0 3.8-.4 2.6-.3 5.4-.7 2.9-.3 5.4-.6 2.4-.4 3.9-.4 8-.4 12 3.9 4 4.2 5.1 12.7-2.3 1-2.2 2.7 0 .4.4 1.2.4.9.7 1.9.2 1.1-.2 2.1-.3 1.1-1.4 2 1.4 46.8 2.6 81.4 1.1 34.7 2 56.8.9 22.5 1.3 33.1.4 10.6.7 10.2-1.1.9.9 27.4t6.7 79.1zm-160.3-274.5q-1.7-2.5-5.1-2.3-3.8.1-5.6 2.8l2 3.9 5-.2c1.5-.1 3-2.5 3.7-4.2zm5.4 138.6-4.4 4.9 4.2 1c2.5-.2 5.4-.3 6.1-2.1zm14.5-55.7q-2.7-2.9-5-2.8-3.8.2-7 5.9.6-2.6 2.5-2.7 1.2 0 3.3 1.1 2.2 1.2 2.9 1.2 1.9-.1 3.3-2.7zm-13.4 84.5q2.2 8.8 9 8.5 2.7-.1 4.2-1.9zm10.9-38.1-5.6 5.8 3.6 3.8 5.6-5.8zm-.7 84.5q-1.3-2.5-3.6-2.4c-1 0-5.9 3.8-6.6 5.6l3.3 1.8.8 1.5c.5 0 4.3-4.8 6.1-6.5zm27.4-97.2q-.7-.3-1.5-.3t-1.5.1q-2.7.1-5.3.9-2.7.7-6 1.7-4.2 1.5-7 2.3-2.8.8-3.6.8 1.2.4 3.7 1.1 2.5.7 4.8 1.3l4.6 1q2.3.5 3.8.5 5.3-.3 8.2-4.7zm-8.8 28.1q0-1.3-.3-2.1-.2-.9-.6-2.1-.2 5.5-6.9 8.8-7.1 3.8-8.5 8.1l4 4.5q2.2-1.4 4.5-2.8 2.2-1.4 4-3.4 1.9-2 2.9-4.6 1.1-2.6.9-6.4zm7.6-60.4q-1.2-.4-1.6-.3h-.7q-1.2.1-3.1.3-1.9.4-4.1 1.7-3 1.9-4.6 2.6-1.7.7-2.5 1.2l2 2q.4 0 2.5-.3 2-.3 5.8-1.8 4.9-.6 6.3-5.4zm-.4-9.3q-1.6-2.5-3.9-2.4-1.1 0-2.6.8-1.5.7-3 1.6-1.5.9-2.8 1.8-1.3.9-2.4 1-.4.4 6.8.1 5.7-.3 7.9-2.9zm-3.4-30.1q-.9-2.9-4.3-2.8-3.1.2-4.1 3.2l2.4 2 1.5-.1q3.4-.1 4.5-2.3zm18.6 48.1q-5.2-4.9-6.7-4.8-3.8.2-3.6 4 .1 3 2 3.3-1.1 1.3-2.6 1.8t-3.4.6q-3.1.2-5.1.9-2.1.7-3.2 2.1 1.2-.1 2.7.7 1.6.8 3.3 1.5 1.8.8 3.5 1.3 1.7.6 2.9.5 2.3-.1 4.4-2.7l-3.4-3.5zm-11.4-39q-2-2.5-3.5-2.4-1.6 0-4.7 7 .8 2.5 3.1 2.4l3.1-.1q2.2-1.4 2.1-4.8zm26.8 63.8q-3.6-4-8.1-3.8-2.3.1-5.3 1.7-3 1.6-6.7 4.8-5.1 4.9-7.7 7.6-2.5 2.7-2.9 2.7 1.2 2.5 5 2.3l1.9-.1q2.9-5.2 11.1-8.6 4.9-1.9 8.3-3.6 3.3-1.6 4.4-3zm-10.3-11.8c-.1-.6-.9-2-2.5-4.8l-10.3 9.9 2.4 3c.5-.8 1-1.4 2-2.2 1-.8 2.2-1.6 3.2-2.3 1-.6 1.8-.9 2.8-1.4.9-.5 1.9-1.2 2.4-1.8zm-3.3-27.1-3.7 4.9 4 4.5 4-4.9zm10.8 63.3q-.1-3.4-4.3-3.2-3.4.2-6.3 5 .9 2.5 3.9 2.4 5-.2 4.6-.6 2.2-2.7 2.1-3.6zm3.9 40.7q-1.1.1-2.5-.7-1.4-.8-2.6-2-1.2-1.2-2.1-2-1-.8-1.4-.8c-1 0-50.4 31.7-52.4 34l56.9-24.4zm10.9-55.5c-1.6-1.7-3.2-2.7-4-2.7q-1.1.1-2.4 1.8-1.2 1.8-2.3 3.8-1.1 1.9-2.1 3.9-1.1 2-1.8 2.4l2.4 2.8zm-.9 74.4c-1.7-2.2-2.9-3-4.4-3q-3.4.2-3.2 5.3v.9c0 .2.1.7.9 1.8zm12.4-34q-3.6-1.9-5.8-1.8-8.8.4-11.1 9.9 1.1-1.4 3.6-2.6 2.4-1.1 4.8-2.1 2.5-1 4.9-1.7 2.4-.8 3.6-1.7zm6.8 18.4q-2.8-2-5.7-2.9-2.9-.9-6.3-.8-6.4.4-11.2 4.8 3.2 4.6 6.6 4.4 1.5-.1 3.6-.8 2.1-.8 4.5-1.9 2.4-1.2 4.7-2 2.2-.7 3.8-.8zm-9.4-34v-1.3q0-.4-.5-1.7-2.3-2.4-3.5-2.4-.3.1-1.1 1.6-.7 1.5-1.5 3.3-.9 1.7-2 3.4-1.1 1.8-2.2 1.9l2.3 2q.4-.5 1.9-1.2l3-1.4q1.5-.7 2.6-1.8t1-2.4zm12.3-47.9c-1.3 4.6-4.8 5.1-9.9 9-2.6 1.9-5.4 2-7 2.9q-2.4 1.4-3.5 3.2 1.2.3 1.9.3.8 0 1.6-.1 2.6-.1 5.4-1.1 2.9-1 6.6-2.9l11.2-6.9zm-2.9 23.6q-2-2.5-6.2-2.3-4.6.2-4.4 4.5.1 3 3.5 2.8l5-.3q1-1.7 1.6-2.4.5-.6.5-1.1zm-1-74.4q-.1-3.4-2-4.6-2.2 3.9-3.1 5.7-.9 1.7-.9 1.3.1 2.5 2.4 2.4 1.5 0 3.7-2.7zm18.7 99.2q-1.1-7.7-10.6-7.2t-8.8 7.2l.4.9q3.5 2.8 9.6 2.5 2.7-.2 4.9-.9 2.3-.7 4.5-2.5zm-12.9-18.8-4.6 6.5 3.7-.7q3.8-.2 4.8-2.8zm3.4 46.4c-.1-.5-.9-1.8-3.7-5.1l-3.6 4.8 3.2 3.9h.4q1.1 0 3.3-2.7zm8.4 9.8q-1.2-1.2-2.4-2.8-1.6-1.7-2.4-1.6-3.8.1-3.6 3.6.1 2.9 2.8 3.2l1.5.4q3.8-.2 4.1-2.8zm5.7-88q-.1-3.4-5.1-3.1-2.6.1-4 2.7.3 0 .9.8.6.9 1.6 1.7 1 .8 1.8 1.4.8.6 1.5.5h.8q2.5-3.5 2.5-4zm-1.4 129.5-3.7-.8c-1.5.1-6 2.6-6.7 4.3l2.8 2.5 3.2-1.1c1.4-1.7 7.6 2.3 4.8-4.1zm3.2-65.2q-.5-2.6-3.2-2.4c-1.5 0-4.9 2.1-5.1 3.8l3.3 3.4 2.8-1.6c.5 0 .5-1.4 2.2-3.2z" class="s4"/></g></svg>
