<svg xmlns="http://www.w3.org/2000/svg" width="772" height="473" version="1.2"><defs><clipPath id="cp1" clipPathUnits="userSpaceOnUse"><path d="M-71-34h907.09v529.13H-71z"/></clipPath></defs><style>.s2{fill:#fff}</style><g id="g8"><g id="g10"><g id="Clip-Path: g12" clip-path="url(#cp1)"><g id="g12"><g id="g18"><path id="path20" d="M214.1 434.3c164.4-80 306.5-78.8 450.7-65.4 78.8 7.3 83.7-39.2 70.5-108.9-7.5-39.5-7.3-100.3 11.9-145.9C794.9.6 710.4-24.8 554.3 30.4 368.8 96 55.3-17.1 8.4 120.4c-20.5 60.1 49.4 66.7 32.9 184.7-12.8 91 18.4 204.3 172.8 129.2z" style="fill:#f57615"/></g><g id="g22"><path id="path24" d="M613.7 101.2C615 80 630 63.6 647.2 64.6c17.2 1.1 30.1 19.2 28.9 40.4-1.3 21.3-16.3 37.7-33.5 36.6-17.2-1-30.1-19.1-28.9-40.4z" style="fill:#de0865"/></g><g id="g26"><path id="path28" d="M347.2 204.7c-8.3-50.1-54.6-36.1-52-4.5-6.3-4.4-10.6-7.3-21.7-6.2-6.8.8-14 5.7-17.9 10.1-14.3 15.7-14.3 42.1-14.7 62.2-.3 19.9 3.9 40.6 12.1 53.5 2.8 4.5 6 7.7 9.2 9.6 3.9 2.3 7.9 3 13.4 2.7 9.6-.6 16.5-7.4 20.6-13.5 7.3-11.1 9.7-27 10.6-44 .7-12.8-1.5-39-1.4-39 12 17.2 50.4 20.3 41.8-30.9zM565.1 99c-31.1-.7-42.9 59.4-44.8 104.6-1.8 41.7 7.4 95.8 37 96.2 26.9.2 37.4-54.7 39.1-94.8 2.2-52.1-4.3-105.4-31.3-106zm-58 105.2c.9-20.9 3.9-45.1 10-64.9-6.5-21.3-16.3-35.6-30.6-34.6-31 2.1-37.4 63-35.3 108.2 2 41.8 16 94.8 45.6 92.5 10.7-.9 17.9-10.1 22.7-23.5-10.2-19.5-13.5-51.1-12.4-77.7zm-59.4 65.7c-9.6 25.9-29.8 43.8-53.1 43.8-29.1 0-53.2-27.8-58.2-64.3 14.5 2.8 30.4-6.9 24.6-41.8-1.8-11.2-5.6-19.1-10.3-24.4 10.8-15.8 26.5-25.8 43.9-25.8 16.9 0 32.1 9.4 42.9 24.3-.6 10.7-.5 21.3 0 31.2.9 18.7 4.2 39.7 10.2 57zm-34.4-45c0-10.9-8.9-19.8-19.8-19.8s-19.8 8.9-19.8 19.8c0 11 8.9 19.8 19.8 19.8s19.8-8.8 19.8-19.8zm227.4-75.5c-21.3-1-34.2 38.8-36.5 75.7-2.2 34 7.1 73.9 27.5 74.6 18.4.6 31.8-40.5 33.9-73.2 2.6-42.6-6.4-76.3-24.9-77.1zm-430.5 45.7c19.3 45.1 35.3 169.1-12.1 175.6-70.6 9.8-53.2-129-44.7-151.7-16.2 8.6-55.7 29.6-63 8.8-11.1-31.3 20.3-80.9 88.8-112.5 60.1-27.7 126.1-18.3 135.2 8 16.3 46.9-79.3 72.5-104.2 71.8z" class="s2"/></g><g id="g30"><path id="path32" d="M691.2 77.2c-3.7 0-6.6-3-6.6-6.6 0-3.6 2.9-6.6 6.6-6.6 3.6 0 6.6 3 6.6 6.6 0 3.6-3 6.6-6.6 6.6zm0-12.3c-3.2 0-5.8 2.6-5.8 5.7 0 3.2 2.6 5.7 5.8 5.7 3.1 0 5.7-2.5 5.7-5.7 0-3.1-2.6-5.7-5.7-5.7zm3.5 8.6c-.2.1-.4.3-.6.5q-.5.3-.7.3-.3 0-.4-.3c-.5-1.5-.8-2-1.3-2h-.2q-.2.1-.1.6.1.6.1 1.5c.1.2.1.3-.2.4q-1 .3-1.8.3-.9 0-.9-.5 0-.8-.1-3.6-.1-3-.1-3.2-.1-.2-.1-.3 0-.4.5-.5.6-.2 1.7-.2 3.6 0 3.7 2.6.1 1.1-.9 1.6l.5.5q.8 1 .9 1.4.2.4.2.6c0 .1-.1.3-.2.3zm-3.5-4.9q-.7 0-.7.7 0 .3.1.6c.1.6.1.7.3.7.4 0 .9-1.1.9-1.5q0-.5-.6-.5z" class="s2"/></g></g></g></g></g></svg>